# Blender 4.5.5 LTS
# www.blender.org
mtllib 17_piscina_lava_3d.mtl
o irregular_basalt_lava_basin
v -1.045000 0.040000 0.000000
v -0.831076 0.063657 0.127045
v -0.724304 0.024704 0.255260
v -0.485932 0.026233 0.353496
v -0.183244 0.064198 0.436476
v 0.193603 0.038121 0.461150
v 0.497031 0.017017 0.361571
v 0.761594 0.056739 0.268403
v 0.816033 0.052160 0.124745
v 0.981249 0.015398 0.000000
v 0.960823 0.043747 -0.146879
v 0.828883 0.062179 -0.292116
v 0.543723 0.021913 -0.395537
v 0.163621 0.029516 -0.389735
v -0.166866 0.064866 -0.397466
v -0.441925 0.034406 -0.321483
v -0.792081 0.018751 -0.279147
v -0.996762 0.059333 -0.152373
v -0.804650 0.040000 0.000000
v -0.639929 0.063657 0.087721
v -0.557714 0.024704 0.176251
v -0.374167 0.026233 0.244081
v -0.141098 0.064198 0.301376
v 0.149074 0.038121 0.318413
v 0.382714 0.017017 0.249656
v 0.586428 0.056739 0.185326
v 0.628346 0.052160 0.086133
v 0.755562 0.015398 0.000000
v 0.739834 0.043747 -0.101416
v 0.638240 0.062179 -0.201699
v 0.418667 0.021913 -0.273109
v 0.125988 0.029516 -0.269103
v -0.128487 0.064866 -0.274441
v -0.340282 0.034406 -0.221977
v -0.609902 0.018751 -0.192744
v -0.767507 0.059333 -0.105210
v -0.574750 -0.005000 0.000000
v -0.457092 -0.005000 0.045373
v -0.398367 -0.005000 0.091164
v -0.267262 -0.005000 0.126249
v -0.100784 -0.005000 0.155884
v 0.106481 -0.005000 0.164696
v 0.273367 -0.005000 0.129132
v 0.418877 -0.005000 0.095858
v 0.448818 -0.005000 0.044552
v 0.539687 -0.005000 0.000000
v 0.528453 -0.005000 -0.052457
v 0.455885 -0.005000 -0.104327
v 0.299048 -0.005000 -0.141263
v 0.089992 -0.005000 -0.139191
v -0.091777 -0.005000 -0.141952
v -0.243059 -0.005000 -0.114815
v -0.435645 -0.005000 -0.099695
v -0.548219 -0.005000 -0.054419
vn -0.0000 0.9831 -0.1831
vn 0.0516 0.9667 0.2507
vn -0.0034 1.0000 -0.0072
vn -0.0970 0.9903 -0.0991
vn 0.0879 0.9958 0.0274
vn 0.0824 0.9963 -0.0257
vn -0.1443 0.9785 0.1474
vn 0.0182 0.9991 -0.0384
vn 0.0639 0.9484 -0.3105
vn -0.0000 0.9819 0.1895
vn 0.0219 0.9941 0.1063
vn -0.0787 0.9830 -0.1658
vn 0.0203 0.9996 0.0207
vn 0.1366 0.9897 0.0426
vn -0.1322 0.9904 0.0412
vn -0.0521 0.9972 0.0532
vn 0.1143 0.9638 -0.2410
vn -0.0347 0.9850 0.1688
vn 0.1629 0.8321 -0.5302
vn 0.3648 0.9285 0.0698
vn 0.0695 0.9752 -0.2102
vn -0.0755 0.9448 -0.3189
vn 0.0181 0.9048 -0.4253
vn -0.0545 0.9652 -0.2557
vn -0.0342 0.9882 -0.1495
vn -0.2672 0.9510 -0.1559
vn -0.1941 0.8976 -0.3959
vn -0.0903 0.9554 0.2811
vn -0.1428 0.9376 0.3170
vn -0.2405 0.9489 0.2043
vn 0.0284 0.9740 0.2246
vn -0.0039 0.9667 0.2558
vn 0.0803 0.8907 0.4475
vn 0.0255 0.9455 0.3246
vn 0.0578 0.9879 0.1438
vn 0.2530 0.9596 0.1233
vn -0.0393 0.9808 -0.1908
vn 0.1372 0.9473 0.2894
vn -0.0060 1.0000 -0.0062
vn -0.1494 0.9877 -0.0466
vn 0.0704 0.9973 -0.0220
vn 0.0519 0.9972 -0.0531
vn -0.0845 0.9804 0.1781
vn 0.0061 0.9995 -0.0296
vn -0.0000 0.9592 -0.2827
vn 0.0537 0.9638 0.2611
vn 0.0583 0.9907 0.1230
vn -0.1351 0.9812 -0.1380
vn 0.0261 0.9996 0.0081
vn 0.1071 0.9937 -0.0334
vn -0.0857 0.9925 0.0876
vn -0.0355 0.9966 0.0749
vn 0.0480 0.9712 -0.2334
vn -0.0000 0.9920 0.1259
vn 0.1965 0.8377 -0.5096
vn 0.1089 0.9842 -0.1396
vn 0.0557 0.9765 -0.2083
vn 0.0733 0.9084 -0.4117
vn 0.1027 0.9500 -0.2949
vn 0.0282 0.9785 -0.2044
vn -0.2464 0.9496 -0.1939
vn -0.2665 0.9510 -0.1565
vn -0.0819 0.8672 -0.4912
vn -0.2144 0.9757 0.0459
vn -0.1982 0.9401 0.2773
vn -0.0390 0.9854 0.1657
vn 0.0026 0.9663 0.2574
vn 0.1146 0.8915 0.4383
vn -0.0398 0.9256 0.3765
vn -0.0242 0.9569 0.2895
vn 0.2719 0.9613 0.0438
vn 0.1864 0.9525 0.2408
vt 0.164676 0.893020
vt 0.227250 0.880149
vt 0.226958 0.998379
vt 0.101814 0.840298
vt 0.184251 0.799040
vt 0.053777 0.722923
vt 0.140881 0.758447
vt 0.013249 0.573970
vt 0.107735 0.668078
vt 0.071780 0.410614
vt 0.079756 0.553402
vt 0.001621 0.388536
vt 0.105928 0.295744
vt 0.051015 0.239375
vt 0.137739 0.195658
vt 0.097085 0.109391
vt 0.186592 0.175154
vt 0.167827 0.082782
vt 0.229191 0.112639
vt 0.301632 0.011879
vt 0.229464 0.001621
vt 0.372878 0.076980
vt 0.279001 0.120531
vt 0.423488 0.217333
vt 0.328171 0.170649
vt 0.420158 0.404310
vt 0.363113 0.278700
vt 0.363018 0.547900
vt 0.360772 0.422675
vt 0.423488 0.566929
vt 0.337016 0.651986
vt 0.385840 0.702106
vt 0.322341 0.784561
vt 0.364622 0.874282
vt 0.279009 0.862027
vt 0.301931 0.974857
vt 0.227620 0.767008
vt 0.205443 0.709076
vt 0.182989 0.680133
vt 0.165890 0.615599
vt 0.147430 0.431704
vt 0.151514 0.533671
vt 0.165127 0.349655
vt 0.181671 0.278118
vt 0.206945 0.263452
vt 0.228971 0.218807
vt 0.254761 0.224397
vt 0.280188 0.260156
vt 0.298167 0.337351
vt 0.298032 0.529602
vt 0.296894 0.440185
vt 0.284500 0.603986
vt 0.276829 0.698702
vt 0.254421 0.754024
s 0
g irregular_basalt_lava_basin_basalt_dark_crust.001
usemtl basalt_dark_crust.001
f 3/4/2 20/5/2 2/1/2
f 4/6/3 21/7/3 3/4/3
f 5/8/4 22/9/4 4/6/4
f 6/12/6 25/13/6 24/10/6
f 7/14/7 26/15/7 25/13/7
f 8/16/8 27/17/8 26/15/8
f 11/20/10 28/19/10 10/21/10
f 12/22/11 29/23/11 11/20/11
f 13/24/12 30/25/12 12/22/12
f 14/26/14 33/28/14 32/29/14
f 15/30/15 34/31/15 33/28/15
f 16/32/16 35/33/16 34/31/16
f 18/36/18 19/2/18 36/35/18
f 20/5/19 37/37/19 19/2/19
f 21/7/20 38/38/20 20/5/20
f 23/11/22 40/40/22 22/9/22
f 23/11/23 42/41/23 41/42/23
f 24/10/24 43/43/24 42/41/24
f 26/15/26 45/45/26 44/44/26
f 27/17/27 46/46/27 45/45/27
f 29/23/28 46/46/28 28/19/28
f 31/27/30 48/48/30 30/25/30
f 32/29/31 49/49/31 31/27/31
f 32/29/32 51/50/32 50/51/32
f 34/31/34 53/53/34 52/52/34
f 35/33/35 54/54/35 53/53/35
f 36/35/36 37/37/36 54/54/36
f 3/4/38 21/7/38 20/5/38
f 4/6/39 22/9/39 21/7/39
f 5/8/40 23/11/40 22/9/40
f 6/12/42 7/14/42 25/13/42
f 7/14/43 8/16/43 26/15/43
f 8/16/44 9/18/44 27/17/44
f 11/20/46 29/23/46 28/19/46
f 12/22/47 30/25/47 29/23/47
f 13/24/48 31/27/48 30/25/48
f 14/26/50 15/30/50 33/28/50
f 15/30/51 16/32/51 34/31/51
f 16/32/52 17/34/52 35/33/52
f 18/36/54 1/3/54 19/2/54
f 20/5/55 38/38/55 37/37/55
f 21/7/56 39/39/56 38/38/56
f 23/11/58 41/42/58 40/40/58
f 23/11/59 24/10/59 42/41/59
f 24/10/60 25/13/60 43/43/60
f 26/15/62 27/17/62 45/45/62
f 27/17/63 28/19/63 46/46/63
f 29/23/64 47/47/64 46/46/64
f 31/27/66 49/49/66 48/48/66
f 32/29/67 50/51/67 49/49/67
f 32/29/68 33/28/68 51/50/68
f 34/31/70 35/33/70 53/53/70
f 35/33/71 36/35/71 54/54/71
f 36/35/72 19/2/72 37/37/72
g irregular_basalt_lava_basin_warm_basalt_edges.001
usemtl warm_basalt_edges.001
f 2/1/1 19/2/1 1/3/1
f 5/8/5 24/10/5 23/11/5
f 9/18/9 28/19/9 27/17/9
f 14/26/13 31/27/13 13/24/13
f 17/34/17 36/35/17 35/33/17
f 22/9/21 39/39/21 21/7/21
f 25/13/25 44/44/25 43/43/25
f 30/25/29 47/47/29 29/23/29
f 33/28/33 52/52/33 51/50/33
f 2/1/37 20/5/37 19/2/37
f 5/8/41 6/12/41 24/10/41
f 9/18/45 10/21/45 28/19/45
f 14/26/49 32/29/49 31/27/49
f 17/34/53 18/36/53 36/35/53
f 22/9/57 40/40/57 39/39/57
f 25/13/61 26/15/61 44/44/61
f 30/25/65 48/48/65 47/47/65
f 33/28/69 34/31/69 52/52/69
o glowing_lava_inset
v 0.000000 -0.010000 0.000000
v -0.540800 0.006000 0.000000
v -0.440469 0.006000 0.022444
v -0.380888 0.006000 0.044744
v -0.253745 0.006000 0.061530
v -0.094411 0.006000 0.074961
v 0.099078 0.006000 0.078666
v 0.258140 0.006000 0.062596
v 0.397409 0.006000 0.046685
v 0.433925 0.006000 0.022111
v 0.512749 0.006000 0.000000
v 0.497440 0.006000 -0.025347
v 0.425429 0.006000 -0.049977
v 0.279306 0.006000 -0.067728
v 0.085759 0.006000 -0.068091
v -0.087583 0.006000 -0.069539
v -0.234222 0.006000 -0.056796
v -0.410332 0.006000 -0.048203
v -0.512955 0.006000 -0.026138
vn 0.0293 0.9909 -0.1311
vn 0.0318 0.9959 -0.0851
vn 0.0219 0.9859 -0.1660
vn 0.0160 0.9818 -0.1894
vn 0.0039 0.9790 -0.2040
vn -0.0179 0.9840 -0.1775
vn -0.0196 0.9851 -0.1712
vn -0.0342 0.9981 -0.0508
vn -0.0310 0.9934 -0.1105
vn -0.0312 0.9993 0.0188
vn -0.0279 0.9963 0.0815
vn -0.0189 0.9877 0.1554
vn -0.0004 0.9736 0.2282
vn -0.0019 0.9740 0.2265
vn 0.0176 0.9790 0.2030
vn 0.0111 0.9735 0.2283
vn 0.0250 0.9929 0.1164
vn 0.0296 0.9991 0.0315
vt 0.074995 0.486709
vt 0.072469 0.999067
vt 0.051675 0.903908
vt 0.030826 0.847356
vt 0.015518 0.726823
vt 0.003539 0.575807
vt 0.000933 0.392478
vt 0.016902 0.241857
vt 0.032627 0.109988
vt 0.056079 0.075508
vt 0.077396 0.000933
vt 0.101338 0.015556
vt 0.124335 0.083894
vt 0.140470 0.222414
vt 0.139908 0.405783
vt 0.140470 0.570014
vt 0.127711 0.708880
vt 0.118747 0.875687
vt 0.097363 0.972809
s 0
g glowing_lava_inset_molten_orange_core.001
usemtl molten_orange_core.001
f 55/55/73 56/56/73 57/57/73
f 55/55/74 57/57/74 58/58/74
f 55/55/75 58/58/75 59/59/75
f 55/55/76 59/59/76 60/60/76
f 55/55/77 60/60/77 61/61/77
f 55/55/78 61/61/78 62/62/78
f 55/55/79 62/62/79 63/63/79
f 55/55/80 63/63/80 64/64/80
f 55/55/81 64/64/81 65/65/81
f 55/55/82 65/65/82 66/66/82
f 55/55/83 66/66/83 67/67/83
f 55/55/84 67/67/84 68/68/84
f 55/55/85 68/68/85 69/69/85
f 55/55/86 69/69/86 70/70/86
f 55/55/87 70/70/87 71/71/87
f 55/55/88 71/71/88 72/72/88
f 55/55/89 72/72/89 73/73/89
f 55/55/90 73/73/90 56/56/90
o glowing_lava_fissure_0
v -0.644969 0.018000 0.015319
v -0.565594 0.022000 0.173784
v -0.655173 0.026292 0.020430
v -0.572397 0.027528 0.177192
v -0.651276 0.039708 0.018477
v -0.569798 0.036472 0.175890
v -0.638663 0.039708 0.012160
v -0.561389 0.036472 0.171678
v -0.634765 0.026292 0.010207
v -0.558791 0.027528 0.170377
vn -0.5173 -0.8089 0.2795
vn -0.8420 0.3090 0.4422
vn 0.0082 0.9998 0.0163
vn 0.4479 -0.0000 0.8941
vn 0.8584 0.3090 -0.4095
vn 0.5336 -0.8089 -0.2469
vn -0.4479 -0.0000 -0.8941
vt 1.000000 1.000000
vt 0.800000 0.500000
vt 1.000000 0.500000
vt 0.600000 1.000000
vt 0.600000 0.500000
vt 0.400000 0.500000
vt 0.250000 0.490000
vt 0.108932 0.055836
vt 0.391068 0.055836
vt 0.400000 1.000000
vt 0.200000 0.500000
vt 0.200000 1.000000
vt 0.000000 0.500000
vt 0.978254 0.324164
vt 0.608932 0.055836
vt 0.521746 0.324164
vt 0.800000 1.000000
vt 0.478254 0.324164
vt 0.021746 0.324164
vt 0.000000 1.000000
vt 0.750000 0.490000
vt 0.891068 0.055836
s 0
g glowing_lava_fissure_0_molten_gold_fissures.001
usemtl molten_gold_fissures.001
f 75/74/91 76/75/91 74/76/91
f 76/75/92 79/77/92 78/78/92
f 79/77/93 80/79/93 78/78/93
f 75/80/94 81/81/94 79/82/94
f 81/83/95 82/84/95 80/79/95
f 83/85/96 74/86/96 82/84/96
f 76/87/97 80/88/97 82/89/97
f 75/74/91 77/90/91 76/75/91
f 76/75/92 77/90/92 79/77/92
f 79/77/93 81/83/93 80/79/93
f 79/82/94 77/91/94 75/80/94
f 75/80/94 83/92/94 81/81/94
f 81/83/95 83/85/95 82/84/95
f 83/85/96 75/93/96 74/86/96
f 82/89/97 74/94/97 76/87/97
f 76/87/97 78/95/97 80/88/97
o glowing_lava_fissure_1
v 0.375661 0.018000 0.277938
v 0.450555 0.022000 0.064763
v 0.386428 0.026292 0.281721
v 0.457733 0.027528 0.067285
v 0.382316 0.039708 0.280276
v 0.454991 0.036472 0.066322
v 0.369006 0.039708 0.275600
v 0.446118 0.036472 0.063204
v 0.364893 0.026292 0.274155
v 0.443376 0.027528 0.062241
vn 0.5592 -0.8089 0.1813
vn 0.9019 0.3090 0.3017
vn 0.0047 0.9999 -0.0135
vn 0.3315 -0.0000 -0.9435
vn -0.8925 0.3090 -0.3287
vn -0.5498 -0.8089 -0.2083
vn -0.3315 -0.0000 0.9435
vt 1.000000 1.000000
vt 0.800000 0.500000
vt 1.000000 0.500000
vt 0.800000 1.000000
vt 0.600000 0.500000
vt 0.600000 1.000000
vt 0.400000 0.500000
vt 0.250000 0.490000
vt 0.108932 0.055836
vt 0.391068 0.055836
vt 0.400000 1.000000
vt 0.200000 0.500000
vt 0.200000 1.000000
vt 0.000000 0.500000
vt 0.978254 0.324164
vt 0.608932 0.055836
vt 0.521746 0.324164
vt 0.478254 0.324164
vt 0.021746 0.324164
vt 0.000000 1.000000
vt 0.750000 0.490000
vt 0.891068 0.055836
s 0
g glowing_lava_fissure_1_molten_gold_fissures.002
usemtl molten_gold_fissures.002
f 85/96/98 86/97/98 84/98/98
f 87/99/99 88/100/99 86/97/99
f 89/101/100 90/102/100 88/100/100
f 85/103/101 91/104/101 89/105/101
f 91/106/102 92/107/102 90/102/102
f 93/108/103 84/109/103 92/107/103
f 86/110/104 90/111/104 92/112/104
f 85/96/98 87/99/98 86/97/98
f 87/99/99 89/101/99 88/100/99
f 89/101/100 91/106/100 90/102/100
f 89/105/101 87/113/101 85/103/101
f 85/103/101 93/114/101 91/104/101
f 91/106/102 93/108/102 92/107/102
f 93/108/103 85/115/103 84/109/103
f 92/112/104 84/116/104 86/110/104
f 86/110/104 88/117/104 90/111/104
o glowing_lava_fissure_2
v 0.422341 0.018000 -0.166102
v 0.304464 0.022000 -0.204104
v 0.425843 0.026292 -0.176964
v 0.306798 0.027528 -0.211345
v 0.424505 0.039708 -0.172815
v 0.305907 0.036472 -0.208579
v 0.420177 0.039708 -0.159388
v 0.303021 0.036472 -0.199628
v 0.418839 0.026292 -0.155239
v 0.302129 0.027528 -0.196862
vn 0.1554 -0.8087 -0.5673
vn 0.2669 0.3089 -0.9129
vn -0.0249 0.9997 -0.0080
vn -0.9518 -0.0000 -0.3068
vn -0.3166 0.3089 0.8969
vn -0.2052 -0.8087 0.5512
vn 0.9518 -0.0000 0.3068
vt 1.000000 1.000000
vt 0.800000 0.500000
vt 1.000000 0.500000
vt 0.800000 1.000000
vt 0.600000 0.500000
vt 0.400000 1.000000
vt 0.400000 0.500000
vt 0.250000 0.490000
vt 0.108932 0.055836
vt 0.391068 0.055836
vt 0.200000 0.500000
vt 0.200000 1.000000
vt 0.000000 0.500000
vt 0.978254 0.324164
vt 0.608932 0.055836
vt 0.521746 0.324164
vt 0.600000 1.000000
vt 0.478254 0.324164
vt 0.021746 0.324164
vt 0.000000 1.000000
vt 0.750000 0.490000
vt 0.891068 0.055836
s 0
g glowing_lava_fissure_2_molten_gold_fissures.003
usemtl molten_gold_fissures.003
f 95/118/105 96/119/105 94/120/105
f 97/121/106 98/122/106 96/119/106
f 98/122/107 101/123/107 100/124/107
f 95/125/108 101/126/108 99/127/108
f 101/123/109 102/128/109 100/124/109
f 103/129/110 94/130/110 102/128/110
f 96/131/111 100/132/111 102/133/111
f 95/118/105 97/121/105 96/119/105
f 97/121/106 99/134/106 98/122/106
f 98/122/107 99/134/107 101/123/107
f 99/127/108 97/135/108 95/125/108
f 95/125/108 103/136/108 101/126/108
f 101/123/109 103/129/109 102/128/109
f 103/129/110 95/137/110 94/130/110
f 102/133/111 94/138/111 96/131/111
f 96/131/111 98/139/111 100/132/111
o glowing_lava_fissure_3
v -0.351442 0.018000 -0.281048
v -0.430386 0.022000 -0.072756
v -0.362114 0.026292 -0.285093
v -0.437501 0.027528 -0.075452
v -0.358037 0.039708 -0.283548
v -0.434783 0.036472 -0.074422
v -0.344846 0.039708 -0.278548
v -0.425989 0.036472 -0.071089
v -0.340770 0.026292 -0.277003
v -0.423272 0.027528 -0.070059
vn -0.5547 -0.8089 -0.1947
vn -0.8944 0.3090 -0.3234
vn -0.0051 0.9999 0.0136
vn -0.3544 -0.0000 0.9351
vn 0.8841 0.3090 0.3506
vn 0.5444 -0.8089 0.2219
vn 0.3544 -0.0000 -0.9351
vt 1.000000 1.000000
vt 0.800000 0.500000
vt 1.000000 0.500000
vt 0.800000 1.000000
vt 0.600000 0.500000
vt 0.600000 1.000000
vt 0.400000 0.500000
vt 0.250000 0.490000
vt 0.108932 0.055836
vt 0.391068 0.055836
vt 0.400000 1.000000
vt 0.200000 0.500000
vt 0.000000 1.000000
vt 0.000000 0.500000
vt 0.978254 0.324164
vt 0.608932 0.055836
vt 0.521746 0.324164
vt 0.478254 0.324164
vt 0.021746 0.324164
vt 0.200000 1.000000
vt 0.750000 0.490000
vt 0.891068 0.055836
s 0
g glowing_lava_fissure_3_molten_gold_fissures.004
usemtl molten_gold_fissures.004
f 105/140/112 106/141/112 104/142/112
f 107/143/113 108/144/113 106/141/113
f 109/145/114 110/146/114 108/144/114
f 105/147/115 111/148/115 109/149/115
f 111/150/116 112/151/116 110/146/116
f 112/151/117 105/152/117 104/153/117
f 106/154/118 110/155/118 112/156/118
f 105/140/112 107/143/112 106/141/112
f 107/143/113 109/145/113 108/144/113
f 109/145/114 111/150/114 110/146/114
f 109/149/115 107/157/115 105/147/115
f 105/147/115 113/158/115 111/148/115
f 111/150/116 113/159/116 112/151/116
f 112/151/117 113/159/117 105/152/117
f 112/156/118 104/160/118 106/154/118
f 106/154/118 108/161/118 110/155/118
