# Blender 4.5.5 LTS
# www.blender.org
mtllib 12_obstaculo_vulcanico.mtl
o Cylinder
v 0.000000 -0.800000 -1.250000
v 0.000000 -0.800000 1.250000
v -0.625465 -0.498792 -1.250000
v -0.625465 -0.498792 1.250000
v -0.779942 0.178017 -1.250000
v -0.779942 0.178017 1.250000
v -0.347107 0.720775 -1.250000
v -0.347107 0.720775 1.250000
v 0.347107 0.720775 -1.250000
v 0.347107 0.720775 1.250000
v 0.779942 0.178017 -1.250000
v 0.779942 0.178017 1.250000
v 0.625465 -0.498792 -1.250000
v 0.625465 -0.498792 1.250000
vn -0.0000 -0.7836 -0.6213
vn -0.0000 -0.7836 0.6213
vn -0.6127 -0.4886 -0.6213
vn -0.6126 -0.4886 0.6213
vn -0.7640 0.1744 -0.6213
vn -0.7640 0.1744 0.6213
vn -0.3400 0.7060 -0.6212
vn -0.3400 0.7060 0.6213
vn 0.3400 0.7060 -0.6213
vn 0.3400 0.7060 0.6213
vn 0.7640 0.1744 -0.6213
vn 0.7640 0.1744 0.6212
vn 0.6126 -0.4886 -0.6213
vn 0.6127 -0.4886 0.6213
vt 1.000000 1.000000
vt 0.857143 0.500000
vt 1.000000 0.500000
vt 0.857143 1.000000
vt 0.714286 0.500000
vt 0.714286 1.000000
vt 0.571429 0.500000
vt 0.571429 1.000000
vt 0.428571 0.500000
vt 0.428571 1.000000
vt 0.285714 0.500000
vt 0.250000 0.490000
vt 0.016017 0.196595
vt 0.354132 0.033767
vt 0.285714 1.000000
vt 0.142857 0.500000
vt 0.142857 1.000000
vt 0.000000 0.500000
vt 0.937640 0.399638
vt 0.854132 0.033767
vt 0.516017 0.196595
vt 0.483983 0.196595
vt 0.437640 0.399638
vt 0.062360 0.399638
vt 0.145868 0.033767
vt 0.000000 1.000000
vt 0.562360 0.399638
vt 0.750000 0.490000
vt 0.983983 0.196595
vt 0.645868 0.033767
s 1
g Cylinder_M_RochaBasalto.001
usemtl M_RochaBasalto.001
f 2/1/2 3/2/3 1/3/1
f 4/4/4 5/5/5 3/2/3
f 6/6/6 7/7/7 5/5/5
f 8/8/8 9/9/9 7/7/7
f 10/10/10 11/11/11 9/9/9
f 2/12/2 12/13/12 8/14/8
f 12/15/12 13/16/13 11/11/11
f 14/17/14 1/18/1 13/16/13
f 3/19/3 7/20/7 11/21/11
f 2/1/2 4/4/4 3/2/3
f 4/4/4 6/6/6 5/5/5
f 6/6/6 8/8/8 7/7/7
f 8/8/8 10/10/10 9/9/9
f 10/10/10 12/15/12 11/11/11
f 6/22/6 4/23/4 2/12/2
f 2/12/2 14/24/14 12/13/12
f 12/13/12 10/25/10 8/14/8
f 8/14/8 6/22/6 2/12/2
f 12/15/12 14/17/14 13/16/13
f 14/17/14 2/26/2 1/18/1
f 13/27/13 1/28/1 3/19/3
f 3/19/3 5/29/5 7/20/7
f 7/20/7 9/30/9 11/21/11
f 11/21/11 13/27/13 3/19/3
o Icosphere
v -0.094933 -0.620445 -0.694282
v 0.000651 -0.910612 -0.694283
v -0.152550 -0.800252 -0.694282
v -0.015925 -0.799012 -0.421030
v 0.015925 -0.700988 -0.778970
v -0.076558 -0.694378 -0.753118
v -0.076558 -0.805622 -0.753118
v 0.094631 -0.750000 -0.753117
v 0.152953 -0.700988 -0.694282
v 0.029242 -0.839999 -0.753118
v 0.123874 -0.839999 -0.694633
v -0.171190 -0.694378 -0.600000
v -0.171190 -0.805622 -0.600000
v 0.026419 -0.570666 -0.642747
v -0.105801 -0.604377 -0.600000
v 0.171190 -0.694378 -0.600000
v 0.105801 -0.604377 -0.600000
v 0.105801 -0.895623 -0.600000
v 0.171190 -0.805622 -0.600000
v -0.105801 -0.895623 -0.600000
v 0.000000 -0.930000 -0.600000
v -0.123874 -0.660001 -0.505368
v 0.094933 -0.620445 -0.505718
v 0.152550 -0.800252 -0.505718
v -0.000651 -0.910612 -0.505717
v -0.152953 -0.799012 -0.505718
v -0.042343 -0.619679 -0.473868
v -0.094631 -0.750000 -0.446883
v 0.076558 -0.694378 -0.446882
v 0.076558 -0.805622 -0.446882
vn -0.7872 0.2522 -0.5628
vn 0.2178 -0.1582 -0.9631
vn -0.0611 -0.1882 -0.9802
vn -0.8411 0.2695 -0.4689
vn 0.4583 -0.8017 -0.3837
vn -0.5162 -0.7166 -0.4689
vn -0.7943 0.5771 -0.1899
vn 0.9818 -0.0000 -0.1899
vn 0.3034 -0.9337 -0.1899
vn -0.7943 -0.5771 -0.1899
vn -0.4889 -0.3678 0.7910
vn -0.4272 -0.5829 0.6912
vn 0.1809 -0.5787 0.7952
vn 0.4831 -0.6707 0.5628
vn 0.2692 -0.0000 0.9631
vn 0.6122 -0.0000 0.7907
vn 0.7872 0.2522 0.5628
vn -0.0443 0.2763 0.9600
vn 0.1867 0.5829 0.7908
vn -0.1523 0.2586 0.9539
vn -0.4857 0.3598 0.7966
vn -0.7640 0.1582 0.6255
vn -0.7937 -0.5766 0.1939
vn -0.5220 -0.7124 0.4689
vn 0.3031 -0.9330 0.1939
vn 0.5162 -0.7166 0.4689
vn 0.9810 -0.0000 0.1940
vn 0.8411 0.2695 0.4689
vn 0.2934 0.9362 0.1934
vn 0.0764 0.9488 0.3065
vn -0.5212 0.7755 0.3563
vn -0.7947 0.5773 0.1876
vn -0.9041 0.1882 0.3837
vn -0.3034 -0.9337 0.1899
vn -0.3031 -0.9330 -0.1939
vn 0.7943 -0.5771 0.1899
vn 0.7947 -0.5773 -0.1876
vn 0.9041 -0.1882 -0.3837
vn 0.7943 0.5771 0.1899
vn 0.7937 0.5766 -0.1939
vn 0.5438 0.7069 -0.4524
vn -0.1785 0.9620 0.2065
vn -0.3007 0.9338 -0.1938
vn -0.9818 -0.0000 0.1899
vn -0.9810 -0.0000 -0.1940
vn -0.4831 -0.6707 -0.5628
vn -0.1892 -0.5822 -0.7907
vn 0.3866 -0.6777 -0.6255
vn 0.4911 -0.3568 -0.7947
vn 0.7640 -0.1582 -0.6255
vn 0.4889 0.3678 -0.7910
vn 0.4012 0.6462 -0.6492
vn -0.6122 -0.0000 -0.7907
vn -0.2692 -0.0000 -0.9631
vn -0.0029 0.7227 -0.6912
vn -0.1793 0.5849 -0.7910
vt 0.226657 0.157461
vt 0.318182 0.078731
vt 0.408476 0.157461
vt 0.727273 0.000000
vt 0.772727 0.078731
vt 0.681818 0.078731
vt 0.545455 0.000000
vt 0.590909 0.078731
vt 0.500000 0.078731
vt 0.318182 0.236191
vt 0.590294 0.157461
vt 0.727273 0.157461
vt 0.681818 0.236191
vt 0.500000 0.236191
vt 0.227273 0.236191
vt 0.864253 0.157461
vt 0.863636 0.236191
vt 0.772727 0.236191
vt 0.590909 0.236191
vt 0.409092 0.236191
vt 0.409092 0.393651
vt 0.409708 0.314921
vt 0.477581 0.432483
vt 0.591525 0.314921
vt 0.613329 0.432483
vt 0.681818 0.393651
vt 0.773343 0.314921
vt 0.772727 0.393651
vt 0.863636 0.393651
vt 0.818182 0.472382
vt 0.909091 0.314921
vt 0.045455 0.393651
vt 0.158784 0.354820
vt 0.090910 0.472382
vt 0.046071 0.314921
vt 0.204854 0.354820
vt 0.318182 0.393651
vt 0.272728 0.472382
vt 0.272728 0.314921
vt 0.045455 0.236191
vt 0.113945 0.197360
vt 0.954545 0.236191
vt 1.000000 0.157461
vt 0.863636 0.078731
vt 0.932126 0.039899
vt 0.409092 0.078731
vt 0.363637 0.000000
vt 0.158784 0.039899
vt 0.227273 0.078731
s 0
g Icosphere_M_MagmaBrilho.001
usemtl M_MagmaBrilho.001
f 15/31/15 20/32/15 17/33/15
f 19/34/16 22/35/16 24/36/16
f 19/37/17 24/38/17 21/39/17
f 15/31/18 17/33/18 26/40/18
f 16/41/19 25/42/19 32/43/19
f 17/33/20 16/41/20 34/44/20
f 15/31/21 26/40/21 29/45/21
f 23/46/22 30/47/22 33/48/22
f 16/41/23 32/43/23 35/49/23
f 17/33/24 34/44/24 27/50/24
f 42/51/25 40/52/25 18/53/25
f 40/52/26 39/54/26 18/53/26
f 18/55/27 39/54/27 44/56/27
f 39/54/28 38/57/28 44/56/28
f 44/58/29 43/59/29 18/60/29
f 44/58/30 38/57/30 43/59/30
f 38/57/31 37/61/31 43/59/31
f 43/62/32 41/63/32 18/64/32
f 43/62/33 37/65/33 41/63/33
f 41/66/34 42/67/34 18/68/34
f 41/66/35 36/69/35 42/67/35
f 36/69/36 40/52/36 42/67/36
f 27/50/37 34/44/37 40/52/37
f 34/44/38 39/54/38 40/52/38
f 35/49/39 32/43/39 39/54/39
f 32/43/40 38/57/40 39/54/40
f 33/48/41 30/47/41 38/57/41
f 30/47/42 37/61/42 38/57/42
f 31/70/43 28/71/43 37/65/43
f 28/71/44 41/63/44 37/65/44
f 29/45/45 36/69/45 41/63/45
f 29/45/46 26/40/46 36/69/46
f 26/40/47 40/52/47 36/69/47
f 34/44/48 35/49/48 39/54/48
f 34/44/49 16/41/49 35/49/49
f 32/43/50 33/48/50 38/57/50
f 32/43/51 25/42/51 33/48/51
f 25/42/52 23/46/52 33/48/52
f 30/47/53 31/72/53 37/61/53
f 30/47/54 23/46/54 31/72/54
f 23/46/55 28/73/55 31/72/55
f 28/71/56 29/45/56 41/63/56
f 28/71/57 15/31/57 29/45/57
f 26/40/58 27/50/58 40/52/58
f 26/40/59 17/33/59 27/50/59
f 21/39/60 16/41/60 17/33/60
f 21/39/61 24/38/61 16/41/61
f 24/36/62 25/42/62 16/41/62
f 24/36/63 22/35/63 25/42/63
f 22/35/64 23/46/64 25/42/64
f 22/74/65 19/75/65 23/46/65
f 19/75/66 28/73/66 23/46/66
f 17/33/67 20/32/67 21/76/67
f 20/32/68 19/77/68 21/76/68
f 19/78/69 15/31/69 28/71/69
f 19/78/70 20/79/70 15/31/70
o Icosphere.001
v -0.843055 0.076502 -0.294282
v -0.747470 -0.213665 -0.294283
v -0.900672 -0.103304 -0.294282
v -0.764046 -0.102065 -0.021030
v -0.732197 -0.004041 -0.378970
v -0.824679 0.002569 -0.353118
v -0.824679 -0.108675 -0.353118
v -0.653490 -0.053053 -0.353117
v -0.595168 -0.004041 -0.294282
v -0.718879 -0.143052 -0.353118
v -0.624247 -0.143052 -0.294633
v -0.919312 0.002569 -0.200000
v -0.919312 -0.108675 -0.200000
v -0.721702 0.126281 -0.242747
v -0.853923 0.092570 -0.200000
v -0.576931 0.002569 -0.200000
v -0.642320 0.092570 -0.200000
v -0.642320 -0.198676 -0.200000
v -0.576931 -0.108675 -0.200000
v -0.853923 -0.198676 -0.200000
v -0.748121 -0.233053 -0.200000
v -0.871995 0.036947 -0.105367
v -0.653188 0.076502 -0.105718
v -0.595571 -0.103304 -0.105718
v -0.748772 -0.213665 -0.105717
v -0.901074 -0.102065 -0.105718
v -0.790465 0.077268 -0.073868
v -0.842753 -0.053053 -0.046883
v -0.671563 0.002569 -0.046882
v -0.671563 -0.108675 -0.046882
vn -0.7872 0.2522 -0.5628
vn 0.2178 -0.1582 -0.9631
vn -0.0611 -0.1882 -0.9802
vn -0.8411 0.2695 -0.4689
vn 0.4583 -0.8017 -0.3837
vn -0.5162 -0.7166 -0.4689
vn -0.7943 0.5771 -0.1899
vn 0.9818 -0.0000 -0.1899
vn 0.3034 -0.9337 -0.1899
vn -0.7943 -0.5771 -0.1899
vn -0.4889 -0.3678 0.7910
vn -0.4272 -0.5829 0.6912
vn 0.1809 -0.5787 0.7952
vn 0.4831 -0.6707 0.5628
vn 0.2692 -0.0000 0.9631
vn 0.6122 -0.0000 0.7907
vn 0.7872 0.2522 0.5628
vn -0.0443 0.2763 0.9600
vn 0.1867 0.5829 0.7908
vn -0.1523 0.2586 0.9539
vn -0.4857 0.3598 0.7966
vn -0.7640 0.1582 0.6255
vn -0.7937 -0.5766 0.1939
vn -0.5220 -0.7124 0.4689
vn 0.3031 -0.9330 0.1939
vn 0.5162 -0.7166 0.4689
vn 0.9810 -0.0000 0.1940
vn 0.8411 0.2695 0.4689
vn 0.2934 0.9362 0.1934
vn 0.0764 0.9488 0.3065
vn -0.5212 0.7755 0.3563
vn -0.7947 0.5773 0.1876
vn -0.9041 0.1882 0.3837
vn -0.3034 -0.9337 0.1899
vn -0.3031 -0.9330 -0.1939
vn 0.7943 -0.5771 0.1899
vn 0.7947 -0.5773 -0.1876
vn 0.9041 -0.1882 -0.3837
vn 0.7943 0.5771 0.1899
vn 0.7937 0.5766 -0.1939
vn 0.5438 0.7069 -0.4524
vn -0.1785 0.9620 0.2065
vn -0.3007 0.9338 -0.1938
vn -0.9818 -0.0000 0.1899
vn -0.9810 -0.0000 -0.1940
vn -0.4831 -0.6707 -0.5628
vn -0.1892 -0.5822 -0.7907
vn 0.3866 -0.6777 -0.6255
vn 0.4911 -0.3568 -0.7947
vn 0.7640 -0.1582 -0.6255
vn 0.4889 0.3678 -0.7910
vn 0.4012 0.6462 -0.6492
vn -0.6122 -0.0000 -0.7907
vn -0.2692 -0.0000 -0.9631
vn -0.0029 0.7227 -0.6912
vn -0.1793 0.5849 -0.7910
vt 0.226657 0.157461
vt 0.318182 0.078731
vt 0.408476 0.157461
vt 0.727273 0.000000
vt 0.772727 0.078731
vt 0.681818 0.078731
vt 0.545455 0.000000
vt 0.590909 0.078731
vt 0.500000 0.078731
vt 0.318182 0.236191
vt 0.590294 0.157461
vt 0.727273 0.157461
vt 0.681818 0.236191
vt 0.500000 0.236191
vt 0.227273 0.236191
vt 0.864253 0.157461
vt 0.863636 0.236191
vt 0.772727 0.236191
vt 0.590909 0.236191
vt 0.409092 0.236191
vt 0.409092 0.393651
vt 0.409708 0.314921
vt 0.477581 0.432483
vt 0.591525 0.314921
vt 0.613329 0.432483
vt 0.681818 0.393651
vt 0.773343 0.314921
vt 0.772727 0.393651
vt 0.863636 0.393651
vt 0.818182 0.472382
vt 0.909091 0.314921
vt 0.045455 0.393651
vt 0.158784 0.354820
vt 0.090910 0.472382
vt 0.046071 0.314921
vt 0.204854 0.354820
vt 0.318182 0.393651
vt 0.272728 0.472382
vt 0.272728 0.314921
vt 0.045455 0.236191
vt 0.113945 0.197360
vt 0.954545 0.236191
vt 1.000000 0.157461
vt 0.863636 0.078731
vt 0.932126 0.039899
vt 0.409092 0.078731
vt 0.363637 0.000000
vt 0.158784 0.039899
vt 0.227273 0.078731
s 0
g Icosphere.001_M_MagmaBrilho.002
usemtl M_MagmaBrilho.002
f 45/80/71 50/81/71 47/82/71
f 49/83/72 52/84/72 54/85/72
f 49/86/73 54/87/73 51/88/73
f 45/80/74 47/82/74 56/89/74
f 46/90/75 55/91/75 62/92/75
f 47/82/76 46/90/76 64/93/76
f 45/80/77 56/89/77 59/94/77
f 53/95/78 60/96/78 63/97/78
f 46/90/79 62/92/79 65/98/79
f 47/82/80 64/93/80 57/99/80
f 72/100/81 70/101/81 48/102/81
f 70/101/82 69/103/82 48/102/82
f 48/104/83 69/103/83 74/105/83
f 69/103/84 68/106/84 74/105/84
f 74/107/85 73/108/85 48/109/85
f 74/107/86 68/106/86 73/108/86
f 68/106/87 67/110/87 73/108/87
f 73/111/88 71/112/88 48/113/88
f 73/111/89 67/114/89 71/112/89
f 71/115/90 72/116/90 48/117/90
f 71/115/91 66/118/91 72/116/91
f 66/118/92 70/101/92 72/116/92
f 57/99/93 64/93/93 70/101/93
f 64/93/94 69/103/94 70/101/94
f 65/98/95 62/92/95 69/103/95
f 62/92/96 68/106/96 69/103/96
f 63/97/97 60/96/97 68/106/97
f 60/96/98 67/110/98 68/106/98
f 61/119/99 58/120/99 67/114/99
f 58/120/100 71/112/100 67/114/100
f 59/94/101 66/118/101 71/112/101
f 59/94/102 56/89/102 66/118/102
f 56/89/103 70/101/103 66/118/103
f 64/93/104 65/98/104 69/103/104
f 64/93/105 46/90/105 65/98/105
f 62/92/106 63/97/106 68/106/106
f 62/92/107 55/91/107 63/97/107
f 55/91/108 53/95/108 63/97/108
f 60/96/109 61/121/109 67/110/109
f 60/96/110 53/95/110 61/121/110
f 53/95/111 58/122/111 61/121/111
f 58/120/112 59/94/112 71/112/112
f 58/120/113 45/80/113 59/94/113
f 56/89/114 57/99/114 70/101/114
f 56/89/115 47/82/115 57/99/115
f 51/88/116 46/90/116 47/82/116
f 51/88/117 54/87/117 46/90/117
f 54/85/118 55/91/118 46/90/118
f 54/85/119 52/84/119 55/91/119
f 52/84/120 53/95/120 55/91/120
f 52/123/121 49/124/121 53/95/121
f 49/124/122 58/122/122 53/95/122
f 47/82/123 50/81/123 51/125/123
f 50/81/124 49/126/124 51/125/124
f 49/127/125 45/80/125 58/120/125
f 49/127/126 50/128/126 45/80/126
o Icosphere.002
v -0.200773 0.872049 0.105718
v -0.105189 0.581882 0.105717
v -0.258390 0.692243 0.105718
v -0.121765 0.693482 0.378970
v -0.089915 0.791506 0.021030
v -0.182398 0.798116 0.046882
v -0.182398 0.686872 0.046882
v -0.011209 0.742494 0.046883
v 0.047113 0.791507 0.105718
v -0.076598 0.652495 0.046882
v 0.018034 0.652495 0.105367
v -0.277030 0.798117 0.200000
v -0.277030 0.686872 0.200000
v -0.079421 0.921828 0.157253
v -0.211641 0.888117 0.200000
v 0.065350 0.798117 0.200000
v -0.000039 0.888117 0.200000
v -0.000039 0.596871 0.200000
v 0.065350 0.686872 0.200000
v -0.211641 0.596871 0.200000
v -0.105840 0.562494 0.200000
v -0.229714 0.832494 0.294633
v -0.010907 0.872049 0.294282
v 0.046710 0.692243 0.294282
v -0.106491 0.581882 0.294283
v -0.258793 0.693482 0.294282
v -0.148183 0.872816 0.326132
v -0.200471 0.742494 0.353117
v -0.029282 0.798116 0.353118
v -0.029282 0.686872 0.353118
vn -0.7872 0.2522 -0.5628
vn 0.2178 -0.1582 -0.9631
vn -0.0611 -0.1882 -0.9802
vn -0.8411 0.2695 -0.4689
vn 0.4583 -0.8017 -0.3837
vn -0.5162 -0.7166 -0.4689
vn -0.7943 0.5771 -0.1899
vn 0.9818 -0.0000 -0.1899
vn 0.3034 -0.9337 -0.1899
vn -0.7943 -0.5771 -0.1899
vn -0.4889 -0.3678 0.7910
vn -0.4272 -0.5829 0.6912
vn 0.1809 -0.5787 0.7952
vn 0.4831 -0.6707 0.5628
vn 0.2692 -0.0000 0.9631
vn 0.6122 -0.0000 0.7907
vn 0.7872 0.2522 0.5628
vn -0.0443 0.2763 0.9600
vn 0.1867 0.5829 0.7908
vn -0.1523 0.2586 0.9539
vn -0.4857 0.3598 0.7966
vn -0.7640 0.1582 0.6255
vn -0.7937 -0.5766 0.1939
vn -0.5220 -0.7124 0.4689
vn 0.3031 -0.9330 0.1939
vn 0.5162 -0.7166 0.4689
vn 0.9810 -0.0000 0.1940
vn 0.8411 0.2695 0.4689
vn 0.2934 0.9362 0.1934
vn 0.0764 0.9488 0.3065
vn -0.5212 0.7755 0.3563
vn -0.7947 0.5773 0.1876
vn -0.9041 0.1882 0.3837
vn -0.3034 -0.9337 0.1899
vn -0.3031 -0.9330 -0.1939
vn 0.7943 -0.5771 0.1899
vn 0.7947 -0.5773 -0.1876
vn 0.9041 -0.1882 -0.3837
vn 0.7943 0.5771 0.1899
vn 0.7937 0.5766 -0.1939
vn 0.5438 0.7069 -0.4524
vn -0.1785 0.9620 0.2065
vn -0.3007 0.9338 -0.1938
vn -0.9818 -0.0000 0.1899
vn -0.9810 -0.0000 -0.1940
vn -0.4831 -0.6707 -0.5628
vn -0.1892 -0.5822 -0.7907
vn 0.3866 -0.6777 -0.6255
vn 0.4911 -0.3568 -0.7947
vn 0.7640 -0.1582 -0.6255
vn 0.4889 0.3678 -0.7910
vn 0.4012 0.6462 -0.6492
vn -0.6122 -0.0000 -0.7907
vn -0.2692 -0.0000 -0.9631
vn -0.0029 0.7227 -0.6912
vn -0.1793 0.5849 -0.7910
vt 0.226657 0.157461
vt 0.318182 0.078731
vt 0.408476 0.157461
vt 0.727273 0.000000
vt 0.772727 0.078731
vt 0.681818 0.078731
vt 0.545455 0.000000
vt 0.590909 0.078731
vt 0.500000 0.078731
vt 0.318182 0.236191
vt 0.590294 0.157461
vt 0.727273 0.157461
vt 0.681818 0.236191
vt 0.500000 0.236191
vt 0.227273 0.236191
vt 0.864253 0.157461
vt 0.863636 0.236191
vt 0.772727 0.236191
vt 0.590909 0.236191
vt 0.409092 0.236191
vt 0.409092 0.393651
vt 0.409708 0.314921
vt 0.477581 0.432483
vt 0.591525 0.314921
vt 0.613329 0.432483
vt 0.681818 0.393651
vt 0.773343 0.314921
vt 0.772727 0.393651
vt 0.863636 0.393651
vt 0.818182 0.472382
vt 0.909091 0.314921
vt 0.045455 0.393651
vt 0.158784 0.354820
vt 0.090910 0.472382
vt 0.046071 0.314921
vt 0.204854 0.354820
vt 0.318182 0.393651
vt 0.272728 0.472382
vt 0.272728 0.314921
vt 0.045455 0.236191
vt 0.113945 0.197360
vt 0.954545 0.236191
vt 1.000000 0.157461
vt 0.863636 0.078731
vt 0.932126 0.039899
vt 0.409092 0.078731
vt 0.363637 0.000000
vt 0.158784 0.039899
vt 0.227273 0.078731
s 0
g Icosphere.002_M_MagmaBrilho.003
usemtl M_MagmaBrilho.003
f 75/129/127 80/130/127 77/131/127
f 79/132/128 82/133/128 84/134/128
f 79/135/129 84/136/129 81/137/129
f 75/129/130 77/131/130 86/138/130
f 76/139/131 85/140/131 92/141/131
f 77/131/132 76/139/132 94/142/132
f 75/129/133 86/138/133 89/143/133
f 83/144/134 90/145/134 93/146/134
f 76/139/135 92/141/135 95/147/135
f 77/131/136 94/142/136 87/148/136
f 102/149/137 100/150/137 78/151/137
f 100/150/138 99/152/138 78/151/138
f 78/153/139 99/152/139 104/154/139
f 99/152/140 98/155/140 104/154/140
f 104/156/141 103/157/141 78/158/141
f 104/156/142 98/155/142 103/157/142
f 98/155/143 97/159/143 103/157/143
f 103/160/144 101/161/144 78/162/144
f 103/160/145 97/163/145 101/161/145
f 101/164/146 102/165/146 78/166/146
f 101/164/147 96/167/147 102/165/147
f 96/167/148 100/150/148 102/165/148
f 87/148/149 94/142/149 100/150/149
f 94/142/150 99/152/150 100/150/150
f 95/147/151 92/141/151 99/152/151
f 92/141/152 98/155/152 99/152/152
f 93/146/153 90/145/153 98/155/153
f 90/145/154 97/159/154 98/155/154
f 91/168/155 88/169/155 97/163/155
f 88/169/156 101/161/156 97/163/156
f 89/143/157 96/167/157 101/161/157
f 89/143/158 86/138/158 96/167/158
f 86/138/159 100/150/159 96/167/159
f 94/142/160 95/147/160 99/152/160
f 94/142/161 76/139/161 95/147/161
f 92/141/162 93/146/162 98/155/162
f 92/141/163 85/140/163 93/146/163
f 85/140/164 83/144/164 93/146/164
f 90/145/165 91/170/165 97/159/165
f 90/145/166 83/144/166 91/170/166
f 83/144/167 88/171/167 91/170/167
f 88/169/168 89/143/168 101/161/168
f 88/169/169 75/129/169 89/143/169
f 86/138/170 87/148/170 100/150/170
f 86/138/171 77/131/171 87/148/171
f 81/137/172 76/139/172 77/131/172
f 81/137/173 84/136/173 76/139/173
f 84/134/174 85/140/174 76/139/174
f 84/134/175 82/133/175 85/140/175
f 82/133/176 83/144/176 85/140/176
f 82/172/177 79/173/177 83/144/177
f 79/173/178 88/171/178 83/144/178
f 77/131/179 80/130/179 81/174/179
f 80/130/180 79/175/180 81/174/180
f 79/176/181 75/129/181 88/169/181
f 79/176/182 80/177/182 75/129/182
o Icosphere.003
v 0.638214 0.287652 0.505718
v 0.733799 -0.002515 0.505717
v 0.580597 0.107845 0.505718
v 0.717223 0.109085 0.778970
v 0.749072 0.207109 0.421030
v 0.656589 0.213719 0.446882
v 0.656589 0.102475 0.446882
v 0.827779 0.158097 0.446883
v 0.886101 0.207109 0.505718
v 0.762390 0.068098 0.446882
v 0.857022 0.068097 0.505368
v 0.561957 0.213719 0.600000
v 0.561957 0.102475 0.600000
v 0.759566 0.337431 0.557253
v 0.627346 0.303720 0.600000
v 0.904338 0.213719 0.600000
v 0.838949 0.303720 0.600000
v 0.838949 0.012474 0.600000
v 0.904338 0.102475 0.600000
v 0.627346 0.012474 0.600000
v 0.733148 -0.021903 0.600000
v 0.609273 0.248096 0.694633
v 0.828081 0.287652 0.694282
v 0.885698 0.107845 0.694282
v 0.732496 -0.002515 0.694283
v 0.580195 0.109085 0.694282
v 0.690804 0.288418 0.726132
v 0.638516 0.158097 0.753117
v 0.809706 0.213719 0.753118
v 0.809706 0.102475 0.753118
vn -0.7872 0.2522 -0.5628
vn 0.2178 -0.1582 -0.9631
vn -0.0611 -0.1882 -0.9802
vn -0.8411 0.2695 -0.4689
vn 0.4583 -0.8017 -0.3837
vn -0.5162 -0.7166 -0.4689
vn -0.7943 0.5771 -0.1899
vn 0.9818 -0.0000 -0.1899
vn 0.3034 -0.9337 -0.1899
vn -0.7943 -0.5771 -0.1899
vn -0.4889 -0.3678 0.7910
vn -0.4272 -0.5829 0.6912
vn 0.1809 -0.5787 0.7952
vn 0.4831 -0.6707 0.5628
vn 0.2692 -0.0000 0.9631
vn 0.6122 -0.0000 0.7907
vn 0.7872 0.2522 0.5628
vn -0.0443 0.2763 0.9600
vn 0.1867 0.5829 0.7908
vn -0.1523 0.2586 0.9539
vn -0.4857 0.3598 0.7966
vn -0.7640 0.1582 0.6255
vn -0.7937 -0.5766 0.1939
vn -0.5220 -0.7124 0.4689
vn 0.3031 -0.9330 0.1939
vn 0.5162 -0.7166 0.4689
vn 0.9810 -0.0000 0.1940
vn 0.8411 0.2695 0.4689
vn 0.2934 0.9362 0.1934
vn 0.0764 0.9488 0.3065
vn -0.5212 0.7755 0.3563
vn -0.7947 0.5773 0.1876
vn -0.9041 0.1882 0.3837
vn -0.3034 -0.9337 0.1899
vn -0.3031 -0.9330 -0.1939
vn 0.7943 -0.5771 0.1899
vn 0.7947 -0.5773 -0.1876
vn 0.9041 -0.1882 -0.3837
vn 0.7943 0.5771 0.1899
vn 0.7937 0.5766 -0.1939
vn 0.5438 0.7069 -0.4524
vn -0.1785 0.9620 0.2065
vn -0.3007 0.9338 -0.1938
vn -0.9818 -0.0000 0.1899
vn -0.9810 -0.0000 -0.1940
vn -0.4831 -0.6707 -0.5628
vn -0.1892 -0.5822 -0.7907
vn 0.3866 -0.6777 -0.6255
vn 0.4911 -0.3568 -0.7947
vn 0.7640 -0.1582 -0.6255
vn 0.4889 0.3678 -0.7910
vn 0.4012 0.6462 -0.6492
vn -0.6122 -0.0000 -0.7907
vn -0.2692 -0.0000 -0.9631
vn -0.0029 0.7227 -0.6912
vn -0.1793 0.5849 -0.7910
vt 0.226657 0.157461
vt 0.318182 0.078731
vt 0.408476 0.157461
vt 0.727273 0.000000
vt 0.772727 0.078731
vt 0.681818 0.078731
vt 0.545455 0.000000
vt 0.590909 0.078731
vt 0.500000 0.078731
vt 0.318182 0.236191
vt 0.590294 0.157461
vt 0.727273 0.157461
vt 0.681818 0.236191
vt 0.500000 0.236191
vt 0.227273 0.236191
vt 0.864253 0.157461
vt 0.863636 0.236191
vt 0.772727 0.236191
vt 0.590909 0.236191
vt 0.409092 0.236191
vt 0.409092 0.393651
vt 0.409708 0.314921
vt 0.477581 0.432483
vt 0.591525 0.314921
vt 0.613329 0.432483
vt 0.681818 0.393651
vt 0.773343 0.314921
vt 0.772727 0.393651
vt 0.863636 0.393651
vt 0.818182 0.472382
vt 0.909091 0.314921
vt 0.045455 0.393651
vt 0.158784 0.354820
vt 0.090910 0.472382
vt 0.046071 0.314921
vt 0.204854 0.354820
vt 0.318182 0.393651
vt 0.272728 0.472382
vt 0.272728 0.314921
vt 0.045455 0.236191
vt 0.113945 0.197360
vt 0.954545 0.236191
vt 1.000000 0.157461
vt 0.863636 0.078731
vt 0.932126 0.039899
vt 0.409092 0.078731
vt 0.363637 0.000000
vt 0.158784 0.039899
vt 0.227273 0.078731
s 0
g Icosphere.003_M_MagmaBrilho.004
usemtl M_MagmaBrilho.004
f 105/178/183 110/179/183 107/180/183
f 109/181/184 112/182/184 114/183/184
f 109/184/185 114/185/185 111/186/185
f 105/178/186 107/180/186 116/187/186
f 106/188/187 115/189/187 122/190/187
f 107/180/188 106/188/188 124/191/188
f 105/178/189 116/187/189 119/192/189
f 113/193/190 120/194/190 123/195/190
f 106/188/191 122/190/191 125/196/191
f 107/180/192 124/191/192 117/197/192
f 132/198/193 130/199/193 108/200/193
f 130/199/194 129/201/194 108/200/194
f 108/202/195 129/201/195 134/203/195
f 129/201/196 128/204/196 134/203/196
f 134/205/197 133/206/197 108/207/197
f 134/205/198 128/204/198 133/206/198
f 128/204/199 127/208/199 133/206/199
f 133/209/200 131/210/200 108/211/200
f 133/209/201 127/212/201 131/210/201
f 131/213/202 132/214/202 108/215/202
f 131/213/203 126/216/203 132/214/203
f 126/216/204 130/199/204 132/214/204
f 117/197/205 124/191/205 130/199/205
f 124/191/206 129/201/206 130/199/206
f 125/196/207 122/190/207 129/201/207
f 122/190/208 128/204/208 129/201/208
f 123/195/209 120/194/209 128/204/209
f 120/194/210 127/208/210 128/204/210
f 121/217/211 118/218/211 127/212/211
f 118/218/212 131/210/212 127/212/212
f 119/192/213 126/216/213 131/210/213
f 119/192/214 116/187/214 126/216/214
f 116/187/215 130/199/215 126/216/215
f 124/191/216 125/196/216 129/201/216
f 124/191/217 106/188/217 125/196/217
f 122/190/218 123/195/218 128/204/218
f 122/190/219 115/189/219 123/195/219
f 115/189/220 113/193/220 123/195/220
f 120/194/221 121/219/221 127/208/221
f 120/194/222 113/193/222 121/219/222
f 113/193/223 118/220/223 121/219/223
f 118/218/224 119/192/224 131/210/224
f 118/218/225 105/178/225 119/192/225
f 116/187/226 117/197/226 130/199/226
f 116/187/227 107/180/227 117/197/227
f 111/186/228 106/188/228 107/180/228
f 111/186/229 114/185/229 106/188/229
f 114/183/230 115/189/230 106/188/230
f 114/183/231 112/182/231 115/189/231
f 112/182/232 113/193/232 115/189/232
f 112/221/233 109/222/233 113/193/233
f 109/222/234 118/220/234 113/193/234
f 107/180/235 110/179/235 111/223/235
f 110/179/236 109/224/236 111/223/236
f 109/225/237 105/178/237 118/218/237
f 109/225/238 110/226/238 105/178/238
