# Blender 4.5.5 LTS
# www.blender.org
mtllib 09_ruinas_e_colunas_atlantis.mtl
o Cube
v 2.250000 1.100000 0.000000
v 2.250000 1.100000 0.600000
v 2.250000 -1.100000 0.000000
v 2.250000 -1.100000 0.600000
v -2.250000 1.100000 0.000000
v -2.250000 1.100000 0.600000
v -2.250000 -1.100000 0.000000
v -2.250000 -1.100000 0.600000
vn 0.1276 0.2610 -0.9569
vn 0.1276 0.2610 0.9569
vn 0.1276 -0.2610 -0.9569
vn 0.1276 -0.2610 0.9569
vn -0.1276 0.2610 -0.9569
vn -0.1276 0.2610 0.9569
vn -0.1276 -0.2610 -0.9569
vn -0.1276 -0.2610 0.9569
vt 0.625000 0.000000
vt 0.375000 0.250000
vt 0.375000 0.000000
vt 0.625000 0.250000
vt 0.375000 0.500000
vt 0.625000 0.500000
vt 0.375000 0.750000
vt 0.625000 0.750000
vt 0.375000 1.000000
vt 0.125000 0.750000
vt 0.125000 0.500000
vt 0.875000 0.500000
vt 0.625000 1.000000
vt 0.875000 0.750000
s 1
g Cube_Mat_Ruina_Marmore_60.001
usemtl Mat_Ruina_Marmore_60.001
f 2/1/2 3/2/3 1/3/1
f 4/4/4 7/5/7 3/2/3
f 8/6/8 5/7/5 7/5/7
f 6/8/6 1/9/1 5/7/5
f 7/5/7 1/10/1 3/11/3
f 4/12/4 6/8/6 8/6/8
f 2/1/2 4/4/4 3/2/3
f 4/4/4 8/6/8 7/5/7
f 8/6/8 6/8/6 5/7/5
f 6/8/6 2/13/2 1/9/1
f 7/5/7 5/7/5 1/10/1
f 4/12/4 2/14/2 6/8/6
o Cylinder
v 1.500000 -0.400000 0.600000
v 1.500000 -0.400000 3.800000
v 1.346927 -0.369552 0.600000
v 1.346927 -0.369552 3.800000
v 1.217157 -0.282843 0.600000
v 1.217157 -0.282843 3.800000
v 1.130448 -0.153073 0.600000
v 1.130448 -0.153073 3.800000
v 1.100000 0.000000 0.600000
v 1.100000 0.000000 3.800000
v 1.130448 0.153073 0.600000
v 1.130448 0.153073 3.800000
v 1.217157 0.282843 0.600000
v 1.217157 0.282843 3.800000
v 1.346927 0.369552 0.600000
v 1.346927 0.369552 3.800000
v 1.500000 0.400000 0.600000
v 1.500000 0.400000 3.800000
v 1.653073 0.369552 0.600000
v 1.653073 0.369552 3.800000
v 1.782843 0.282843 0.600000
v 1.782843 0.282843 3.800000
v 1.869552 0.153073 0.600000
v 1.869552 0.153073 3.800000
v 1.900000 0.000000 0.600000
v 1.900000 0.000000 3.800000
v 1.869552 -0.153073 0.600000
v 1.869552 -0.153073 3.800000
v 1.782843 -0.282843 0.600000
v 1.782843 -0.282843 3.800000
v 1.653073 -0.369552 0.600000
v 1.653073 -0.369552 3.800000
vn -0.0000 -0.7462 -0.6657
vn -0.0000 -0.7462 0.6657
vn -0.2856 -0.6894 -0.6657
vn -0.2856 -0.6894 0.6657
vn -0.5276 -0.5276 -0.6657
vn -0.5277 -0.5277 0.6657
vn -0.6894 -0.2856 -0.6657
vn -0.6894 -0.2856 0.6657
vn -0.7462 -0.0000 -0.6657
vn -0.7462 -0.0000 0.6657
vn -0.6894 0.2856 -0.6657
vn -0.6894 0.2856 0.6657
vn -0.5276 0.5276 -0.6657
vn -0.5277 0.5277 0.6657
vn -0.2856 0.6894 -0.6657
vn -0.2856 0.6894 0.6657
vn -0.0000 0.7462 -0.6657
vn -0.0000 0.7462 0.6657
vn 0.2856 0.6894 -0.6657
vn 0.2856 0.6894 0.6657
vn 0.5276 0.5276 -0.6657
vn 0.5277 0.5277 0.6657
vn 0.6894 0.2856 -0.6657
vn 0.6894 0.2856 0.6657
vn 0.7462 -0.0000 -0.6657
vn 0.7462 -0.0000 0.6657
vn 0.6894 -0.2856 -0.6657
vn 0.6894 -0.2856 0.6657
vn 0.5276 -0.5276 -0.6657
vn 0.5277 -0.5277 0.6657
vn 0.2856 -0.6894 -0.6657
vn 0.2856 -0.6894 0.6657
vt 1.000000 1.000000
vt 0.937500 0.500000
vt 1.000000 0.500000
vt 0.937500 1.000000
vt 0.875000 0.500000
vt 0.875000 1.000000
vt 0.812500 0.500000
vt 0.812500 1.000000
vt 0.750000 0.500000
vt 0.750000 1.000000
vt 0.687500 0.500000
vt 0.687500 1.000000
vt 0.625000 0.500000
vt 0.625000 1.000000
vt 0.562500 0.500000
vt 0.562500 1.000000
vt 0.500000 0.500000
vt 0.500000 1.000000
vt 0.437500 0.500000
vt 0.437500 1.000000
vt 0.375000 0.500000
vt 0.375000 1.000000
vt 0.312500 0.500000
vt 0.312500 1.000000
vt 0.250000 0.500000
vt 0.250000 1.000000
vt 0.187500 0.500000
vt 0.187500 1.000000
vt 0.125000 0.500000
vt 0.080294 0.080294
vt 0.419706 0.080294
vt 0.419706 0.419706
vt 0.125000 1.000000
vt 0.062500 0.500000
vt 0.062500 1.000000
vt 0.000000 0.500000
vt 0.841844 0.028269
vt 0.528269 0.158156
vt 0.658156 0.471731
vt 0.341844 0.471731
vt 0.250000 0.490000
vt 0.158156 0.471731
vt 0.080294 0.419706
vt 0.028269 0.341844
vt 0.010000 0.250000
vt 0.028269 0.158156
vt 0.158156 0.028269
vt 0.250000 0.010000
vt 0.341844 0.028269
vt 0.471731 0.158156
vt 0.490000 0.250000
vt 0.471731 0.341844
vt 0.000000 1.000000
vt 0.750000 0.490000
vt 0.841844 0.471731
vt 0.919706 0.419706
vt 0.971731 0.341844
vt 0.990000 0.250000
vt 0.971731 0.158156
vt 0.919706 0.080294
vt 0.750000 0.010000
vt 0.658156 0.028269
vt 0.580294 0.080294
vt 0.510000 0.250000
vt 0.528269 0.341844
vt 0.580294 0.419706
s 1
g Cylinder_Mat_Ruina_Marmore_60.002
usemtl Mat_Ruina_Marmore_60.002
f 10/15/10 11/16/11 9/17/9
f 12/18/12 13/19/13 11/16/11
f 14/20/14 15/21/15 13/19/13
f 16/22/16 17/23/17 15/21/15
f 18/24/18 19/25/19 17/23/17
f 20/26/20 21/27/21 19/25/19
f 22/28/22 23/29/23 21/27/21
f 24/30/24 25/31/25 23/29/23
f 26/32/26 27/33/27 25/31/25
f 28/34/28 29/35/29 27/33/27
f 30/36/30 31/37/31 29/35/29
f 32/38/32 33/39/33 31/37/31
f 34/40/34 35/41/35 33/39/33
f 36/42/36 37/43/37 35/41/35
f 30/44/30 22/45/22 14/46/14
f 38/47/38 39/48/39 37/43/37
f 40/49/40 9/50/9 39/48/39
f 23/51/23 31/52/31 39/53/39
f 10/15/10 12/18/12 11/16/11
f 12/18/12 14/20/14 13/19/13
f 14/20/14 16/22/16 15/21/15
f 16/22/16 18/24/18 17/23/17
f 18/24/18 20/26/20 19/25/19
f 20/26/20 22/28/22 21/27/21
f 22/28/22 24/30/24 23/29/23
f 24/30/24 26/32/26 25/31/25
f 26/32/26 28/34/28 27/33/27
f 28/34/28 30/36/30 29/35/29
f 30/36/30 32/38/32 31/37/31
f 32/38/32 34/40/34 33/39/33
f 34/40/34 36/42/36 35/41/35
f 36/42/36 38/47/38 37/43/37
f 14/46/14 12/54/12 10/55/10
f 10/55/10 40/56/40 38/57/38
f 38/57/38 36/58/36 34/59/34
f 34/59/34 32/60/32 30/44/30
f 30/44/30 28/61/28 26/62/26
f 26/62/26 24/63/24 22/45/22
f 22/45/22 20/64/20 18/65/18
f 18/65/18 16/66/16 14/46/14
f 14/46/14 10/55/10 38/57/38
f 38/57/38 34/59/34 30/44/30
f 30/44/30 26/62/26 22/45/22
f 22/45/22 18/65/18 14/46/14
f 14/46/14 38/57/38 30/44/30
f 38/47/38 40/49/40 39/48/39
f 40/49/40 10/67/10 9/50/9
f 39/53/39 9/68/9 11/69/11
f 11/69/11 13/70/13 15/71/15
f 15/71/15 17/72/17 19/73/19
f 19/73/19 21/74/21 23/51/23
f 23/51/23 25/75/25 27/76/27
f 27/76/27 29/77/29 31/52/31
f 31/52/31 33/78/33 35/79/35
f 35/79/35 37/80/37 39/53/39
f 39/53/39 11/69/11 15/71/15
f 15/71/15 19/73/19 23/51/23
f 23/51/23 27/76/27 31/52/31
f 31/52/31 35/79/35 39/53/39
f 39/53/39 15/71/15 23/51/23
o Cube.001
v 1.995000 0.495000 3.665000
v 1.995000 0.495000 3.935000
v 1.995000 -0.495000 3.665000
v 1.995000 -0.495000 3.935000
v 1.005000 0.495000 3.665000
v 1.005000 0.495000 3.935000
v 1.005000 -0.495000 3.665000
v 1.005000 -0.495000 3.935000
vn 0.2544 0.2545 -0.9330
vn 0.2545 0.2545 0.9330
vn 0.2545 -0.2545 -0.9330
vn 0.2544 -0.2545 0.9330
vn -0.2545 0.2545 -0.9330
vn -0.2544 0.2545 0.9330
vn -0.2544 -0.2545 -0.9330
vn -0.2545 -0.2545 0.9330
vt 0.625000 0.000000
vt 0.375000 0.250000
vt 0.375000 0.000000
vt 0.625000 0.250000
vt 0.375000 0.500000
vt 0.625000 0.500000
vt 0.375000 0.750000
vt 0.625000 0.750000
vt 0.375000 1.000000
vt 0.125000 0.750000
vt 0.125000 0.500000
vt 0.875000 0.500000
vt 0.625000 1.000000
vt 0.875000 0.750000
s 1
g Cube.001_Mat_Ruina_Ouro_30.001
usemtl Mat_Ruina_Ouro_30.001
f 42/81/42 43/82/43 41/83/41
f 44/84/44 47/85/47 43/82/43
f 48/86/48 45/87/45 47/85/47
f 46/88/46 41/89/41 45/87/45
f 47/85/47 41/90/41 43/91/43
f 44/92/44 46/88/46 48/86/48
f 42/81/42 44/84/44 43/82/43
f 44/84/44 48/86/48 47/85/47
f 48/86/48 46/88/46 45/87/45
f 46/88/46 42/93/42 41/89/41
f 47/85/47 45/87/45 41/90/41
f 44/92/44 42/94/42 46/88/46
o Cylinder.001
v 0.000000 -0.400000 0.600000
v 0.000000 -0.400000 2.400000
v -0.153073 -0.369552 0.600000
v -0.153073 -0.369552 2.400000
v -0.282843 -0.282843 0.600000
v -0.282843 -0.282843 2.400000
v -0.369552 -0.153073 0.600000
v -0.369552 -0.153073 2.400000
v -0.400000 0.000000 0.600000
v -0.400000 0.000000 2.400000
v -0.369552 0.153073 0.600000
v -0.369552 0.153073 2.400000
v -0.282843 0.282843 0.600000
v -0.282843 0.282843 2.400000
v -0.153073 0.369552 0.600000
v -0.153073 0.369552 2.400000
v 0.000000 0.400000 0.600000
v 0.000000 0.400000 2.400000
v 0.153073 0.369552 0.600000
v 0.153073 0.369552 2.400000
v 0.282843 0.282843 0.600000
v 0.282843 0.282843 2.400000
v 0.369552 0.153073 0.600000
v 0.369552 0.153073 2.400000
v 0.400000 0.000000 0.600000
v 0.400000 0.000000 2.400000
v 0.369552 -0.153073 0.600000
v 0.369552 -0.153073 2.400000
v 0.282843 -0.282843 0.600000
v 0.282843 -0.282843 2.400000
v 0.153073 -0.369552 0.600000
v 0.153073 -0.369552 2.400000
vn -0.0000 -0.7462 -0.6657
vn -0.0000 -0.7462 0.6657
vn -0.2856 -0.6894 -0.6657
vn -0.2856 -0.6894 0.6657
vn -0.5276 -0.5276 -0.6657
vn -0.5277 -0.5277 0.6657
vn -0.6894 -0.2856 -0.6657
vn -0.6894 -0.2856 0.6657
vn -0.7462 -0.0000 -0.6657
vn -0.7462 -0.0000 0.6657
vn -0.6894 0.2856 -0.6657
vn -0.6894 0.2856 0.6657
vn -0.5276 0.5276 -0.6657
vn -0.5277 0.5277 0.6657
vn -0.2856 0.6894 -0.6657
vn -0.2856 0.6894 0.6657
vn -0.0000 0.7462 -0.6657
vn -0.0000 0.7462 0.6657
vn 0.2856 0.6894 -0.6657
vn 0.2856 0.6894 0.6657
vn 0.5276 0.5276 -0.6657
vn 0.5277 0.5277 0.6657
vn 0.6894 0.2856 -0.6657
vn 0.6894 0.2856 0.6657
vn 0.7462 -0.0000 -0.6657
vn 0.7462 -0.0000 0.6657
vn 0.6894 -0.2856 -0.6657
vn 0.6894 -0.2856 0.6657
vn 0.5276 -0.5276 -0.6657
vn 0.5277 -0.5277 0.6657
vn 0.2856 -0.6894 -0.6657
vn 0.2856 -0.6894 0.6657
vt 1.000000 1.000000
vt 0.937500 0.500000
vt 1.000000 0.500000
vt 0.937500 1.000000
vt 0.875000 0.500000
vt 0.875000 1.000000
vt 0.812500 0.500000
vt 0.812500 1.000000
vt 0.750000 0.500000
vt 0.750000 1.000000
vt 0.687500 0.500000
vt 0.687500 1.000000
vt 0.625000 0.500000
vt 0.625000 1.000000
vt 0.562500 0.500000
vt 0.562500 1.000000
vt 0.500000 0.500000
vt 0.500000 1.000000
vt 0.437500 0.500000
vt 0.437500 1.000000
vt 0.375000 0.500000
vt 0.375000 1.000000
vt 0.312500 0.500000
vt 0.312500 1.000000
vt 0.250000 0.500000
vt 0.250000 1.000000
vt 0.187500 0.500000
vt 0.187500 1.000000
vt 0.125000 0.500000
vt 0.080294 0.080294
vt 0.419706 0.080294
vt 0.419706 0.419706
vt 0.125000 1.000000
vt 0.062500 0.500000
vt 0.062500 1.000000
vt 0.000000 0.500000
vt 0.841844 0.028269
vt 0.528269 0.158156
vt 0.658156 0.471731
vt 0.341844 0.471731
vt 0.250000 0.490000
vt 0.158156 0.471731
vt 0.080294 0.419706
vt 0.028269 0.341844
vt 0.010000 0.250000
vt 0.028269 0.158156
vt 0.158156 0.028269
vt 0.250000 0.010000
vt 0.341844 0.028269
vt 0.471731 0.158156
vt 0.490000 0.250000
vt 0.471731 0.341844
vt 0.000000 1.000000
vt 0.750000 0.490000
vt 0.841844 0.471731
vt 0.919706 0.419706
vt 0.971731 0.341844
vt 0.990000 0.250000
vt 0.971731 0.158156
vt 0.919706 0.080294
vt 0.750000 0.010000
vt 0.658156 0.028269
vt 0.580294 0.080294
vt 0.510000 0.250000
vt 0.528269 0.341844
vt 0.580294 0.419706
s 1
g Cylinder.001_Mat_Ruina_Marmore_60.003
usemtl Mat_Ruina_Marmore_60.003
f 50/95/50 51/96/51 49/97/49
f 52/98/52 53/99/53 51/96/51
f 54/100/54 55/101/55 53/99/53
f 56/102/56 57/103/57 55/101/55
f 58/104/58 59/105/59 57/103/57
f 60/106/60 61/107/61 59/105/59
f 62/108/62 63/109/63 61/107/61
f 64/110/64 65/111/65 63/109/63
f 66/112/66 67/113/67 65/111/65
f 68/114/68 69/115/69 67/113/67
f 70/116/70 71/117/71 69/115/69
f 72/118/72 73/119/73 71/117/71
f 74/120/74 75/121/75 73/119/73
f 76/122/76 77/123/77 75/121/75
f 70/124/70 62/125/62 54/126/54
f 78/127/78 79/128/79 77/123/77
f 80/129/80 49/130/49 79/128/79
f 63/131/63 71/132/71 79/133/79
f 50/95/50 52/98/52 51/96/51
f 52/98/52 54/100/54 53/99/53
f 54/100/54 56/102/56 55/101/55
f 56/102/56 58/104/58 57/103/57
f 58/104/58 60/106/60 59/105/59
f 60/106/60 62/108/62 61/107/61
f 62/108/62 64/110/64 63/109/63
f 64/110/64 66/112/66 65/111/65
f 66/112/66 68/114/68 67/113/67
f 68/114/68 70/116/70 69/115/69
f 70/116/70 72/118/72 71/117/71
f 72/118/72 74/120/74 73/119/73
f 74/120/74 76/122/76 75/121/75
f 76/122/76 78/127/78 77/123/77
f 54/126/54 52/134/52 50/135/50
f 50/135/50 80/136/80 78/137/78
f 78/137/78 76/138/76 74/139/74
f 74/139/74 72/140/72 70/124/70
f 70/124/70 68/141/68 66/142/66
f 66/142/66 64/143/64 62/125/62
f 62/125/62 60/144/60 58/145/58
f 58/145/58 56/146/56 54/126/54
f 54/126/54 50/135/50 78/137/78
f 78/137/78 74/139/74 70/124/70
f 70/124/70 66/142/66 62/125/62
f 62/125/62 58/145/58 54/126/54
f 54/126/54 78/137/78 70/124/70
f 78/127/78 80/129/80 79/128/79
f 80/129/80 50/147/50 49/130/49
f 79/133/79 49/148/49 51/149/51
f 51/149/51 53/150/53 55/151/55
f 55/151/55 57/152/57 59/153/59
f 59/153/59 61/154/61 63/131/63
f 63/131/63 65/155/65 67/156/67
f 67/156/67 69/157/69 71/132/71
f 71/132/71 73/158/73 75/159/75
f 75/159/75 77/160/77 79/133/79
f 79/133/79 51/149/51 55/151/55
f 55/151/55 59/153/59 63/131/63
f 63/131/63 67/156/67 71/132/71
f 71/132/71 75/159/75 79/133/79
f 79/133/79 55/151/55 63/131/63
o Cube.002
v 0.495000 0.495000 2.265000
v 0.495000 0.495000 2.535000
v 0.495000 -0.495000 2.265000
v 0.495000 -0.495000 2.535000
v -0.495000 0.495000 2.265000
v -0.495000 0.495000 2.535000
v -0.495000 -0.495000 2.265000
v -0.495000 -0.495000 2.535000
vn 0.2544 0.2545 -0.9330
vn 0.2545 0.2545 0.9330
vn 0.2545 -0.2545 -0.9330
vn 0.2544 -0.2545 0.9330
vn -0.2545 0.2545 -0.9330
vn -0.2544 0.2545 0.9330
vn -0.2544 -0.2545 -0.9330
vn -0.2545 -0.2545 0.9330
vt 0.625000 0.000000
vt 0.375000 0.250000
vt 0.375000 0.000000
vt 0.625000 0.250000
vt 0.375000 0.500000
vt 0.625000 0.500000
vt 0.375000 0.750000
vt 0.625000 0.750000
vt 0.375000 1.000000
vt 0.125000 0.750000
vt 0.125000 0.500000
vt 0.875000 0.500000
vt 0.625000 1.000000
vt 0.875000 0.750000
s 1
g Cube.002_Mat_Ruina_Ouro_30.002
usemtl Mat_Ruina_Ouro_30.002
f 82/161/82 83/162/83 81/163/81
f 84/164/84 87/165/87 83/162/83
f 88/166/88 85/167/85 87/165/87
f 86/168/86 81/169/81 85/167/85
f 87/165/87 81/170/81 83/171/83
f 84/172/84 86/168/86 88/166/88
f 82/161/82 84/164/84 83/162/83
f 84/164/84 88/166/88 87/165/87
f 88/166/88 86/168/86 85/167/85
f 86/168/86 82/173/82 81/169/81
f 87/165/87 85/167/85 81/170/81
f 84/172/84 82/174/82 86/168/86
o Cylinder.002
v -1.500000 -0.661544 0.711573
v -1.500000 -0.120974 3.254756
v -1.653073 -0.631761 0.705242
v -1.653073 -0.091191 3.248426
v -1.782843 -0.546947 0.687214
v -1.782843 -0.006377 3.230398
v -1.869552 -0.420014 0.660234
v -1.869552 0.120557 3.203418
v -1.900000 -0.270285 0.628408
v -1.900000 0.270285 3.171592
v -1.869552 -0.120557 0.596582
v -1.869552 0.420014 3.139766
v -1.782843 0.006377 0.569602
v -1.782843 0.546947 3.112786
v -1.653073 0.091191 0.551574
v -1.653073 0.631761 3.094758
v -1.500000 0.120974 0.545243
v -1.500000 0.661544 3.088427
v -1.346927 0.091191 0.551574
v -1.346927 0.631761 3.094758
v -1.217157 0.006377 0.569602
v -1.217157 0.546947 3.112786
v -1.130448 -0.120557 0.596582
v -1.130448 0.420014 3.139766
v -1.100000 -0.270285 0.628408
v -1.100000 0.270285 3.171592
v -1.130448 -0.420014 0.660234
v -1.130448 0.120557 3.203418
v -1.217157 -0.546947 0.687214
v -1.217157 -0.006377 3.230398
v -1.346927 -0.631761 0.705242
v -1.346927 -0.091191 3.248426
vn -0.0000 -0.8683 -0.4960
vn -0.0000 -0.5915 0.8063
vn -0.2856 -0.8128 -0.5078
vn -0.2856 -0.5359 0.7945
vn -0.5276 -0.6545 -0.5415
vn -0.5277 -0.3777 0.7609
vn -0.6894 -0.4177 -0.5918
vn -0.6894 -0.1409 0.7105
vn -0.7462 -0.1384 -0.6512
vn -0.7462 0.1384 0.6512
vn -0.6894 0.1409 -0.7105
vn -0.6894 0.4177 0.5918
vn -0.5276 0.3777 -0.7609
vn -0.5277 0.6545 0.5414
vn -0.2856 0.5359 -0.7945
vn -0.2856 0.8127 0.5078
vn -0.0000 0.5915 -0.8063
vn -0.0000 0.8683 0.4960
vn 0.2856 0.5359 -0.7945
vn 0.2856 0.8127 0.5078
vn 0.5276 0.3777 -0.7609
vn 0.5277 0.6545 0.5415
vn 0.6894 0.1409 -0.7105
vn 0.6894 0.4177 0.5918
vn 0.7462 -0.1384 -0.6512
vn 0.7462 0.1384 0.6512
vn 0.6894 -0.4177 -0.5918
vn 0.6894 -0.1409 0.7105
vn 0.5276 -0.6545 -0.5415
vn 0.5277 -0.3777 0.7609
vn 0.2856 -0.8128 -0.5078
vn 0.2856 -0.5359 0.7945
vt 1.000000 1.000000
vt 0.937500 0.500000
vt 1.000000 0.500000
vt 0.937500 1.000000
vt 0.875000 0.500000
vt 0.875000 1.000000
vt 0.812500 0.500000
vt 0.812500 1.000000
vt 0.750000 0.500000
vt 0.750000 1.000000
vt 0.687500 0.500000
vt 0.687500 1.000000
vt 0.625000 0.500000
vt 0.625000 1.000000
vt 0.562500 0.500000
vt 0.562500 1.000000
vt 0.500000 0.500000
vt 0.500000 1.000000
vt 0.437500 0.500000
vt 0.437500 1.000000
vt 0.375000 0.500000
vt 0.375000 1.000000
vt 0.312500 0.500000
vt 0.312500 1.000000
vt 0.250000 0.500000
vt 0.250000 1.000000
vt 0.187500 0.500000
vt 0.187500 1.000000
vt 0.125000 0.500000
vt 0.080294 0.080294
vt 0.419706 0.080294
vt 0.419706 0.419706
vt 0.125000 1.000000
vt 0.062500 0.500000
vt 0.062500 1.000000
vt 0.000000 0.500000
vt 0.841844 0.028269
vt 0.528269 0.158156
vt 0.658156 0.471731
vt 0.341844 0.471731
vt 0.250000 0.490000
vt 0.158156 0.471731
vt 0.080294 0.419706
vt 0.028269 0.341844
vt 0.010000 0.250000
vt 0.028269 0.158156
vt 0.158156 0.028269
vt 0.250000 0.010000
vt 0.341844 0.028269
vt 0.471731 0.158156
vt 0.490000 0.250000
vt 0.471731 0.341844
vt 0.000000 1.000000
vt 0.750000 0.490000
vt 0.841844 0.471731
vt 0.919706 0.419706
vt 0.971731 0.341844
vt 0.990000 0.250000
vt 0.971731 0.158156
vt 0.919706 0.080294
vt 0.750000 0.010000
vt 0.658156 0.028269
vt 0.580294 0.080294
vt 0.510000 0.250000
vt 0.528269 0.341844
vt 0.580294 0.419706
s 1
g Cylinder.002_Mat_Ruina_Marmore_60.004
usemtl Mat_Ruina_Marmore_60.004
f 90/175/90 91/176/91 89/177/89
f 92/178/92 93/179/93 91/176/91
f 94/180/94 95/181/95 93/179/93
f 96/182/96 97/183/97 95/181/95
f 98/184/98 99/185/99 97/183/97
f 100/186/100 101/187/101 99/185/99
f 102/188/102 103/189/103 101/187/101
f 104/190/104 105/191/105 103/189/103
f 106/192/106 107/193/107 105/191/105
f 108/194/108 109/195/109 107/193/107
f 110/196/110 111/197/111 109/195/109
f 112/198/112 113/199/113 111/197/111
f 114/200/114 115/201/115 113/199/113
f 116/202/116 117/203/117 115/201/115
f 110/204/110 102/205/102 94/206/94
f 118/207/118 119/208/119 117/203/117
f 120/209/120 89/210/89 119/208/119
f 103/211/103 111/212/111 119/213/119
f 90/175/90 92/178/92 91/176/91
f 92/178/92 94/180/94 93/179/93
f 94/180/94 96/182/96 95/181/95
f 96/182/96 98/184/98 97/183/97
f 98/184/98 100/186/100 99/185/99
f 100/186/100 102/188/102 101/187/101
f 102/188/102 104/190/104 103/189/103
f 104/190/104 106/192/106 105/191/105
f 106/192/106 108/194/108 107/193/107
f 108/194/108 110/196/110 109/195/109
f 110/196/110 112/198/112 111/197/111
f 112/198/112 114/200/114 113/199/113
f 114/200/114 116/202/116 115/201/115
f 116/202/116 118/207/118 117/203/117
f 94/206/94 92/214/92 90/215/90
f 90/215/90 120/216/120 118/217/118
f 118/217/118 116/218/116 114/219/114
f 114/219/114 112/220/112 110/204/110
f 110/204/110 108/221/108 106/222/106
f 106/222/106 104/223/104 102/205/102
f 102/205/102 100/224/100 98/225/98
f 98/225/98 96/226/96 94/206/94
f 94/206/94 90/215/90 118/217/118
f 118/217/118 114/219/114 110/204/110
f 110/204/110 106/222/106 102/205/102
f 102/205/102 98/225/98 94/206/94
f 94/206/94 118/217/118 110/204/110
f 118/207/118 120/209/120 119/208/119
f 120/209/120 90/227/90 89/210/89
f 119/213/119 89/228/89 91/229/91
f 91/229/91 93/230/93 95/231/95
f 95/231/95 97/232/97 99/233/99
f 99/233/99 101/234/101 103/211/103
f 103/211/103 105/235/105 107/236/107
f 107/236/107 109/237/109 111/212/111
f 111/212/111 113/238/113 115/239/115
f 115/239/115 117/240/117 119/213/119
f 119/213/119 91/229/91 95/231/95
f 95/231/95 99/233/99 103/211/103
f 103/211/103 107/236/107 111/212/111
f 111/212/111 115/239/115 119/213/119
f 119/213/119 95/231/95 103/211/103
o Cube.003
v -1.005000 0.456115 2.965034
v -1.005000 0.512251 3.229134
v -1.005000 -0.512251 3.170866
v -1.005000 -0.456115 3.434966
v -1.995000 0.456115 2.965034
v -1.995000 0.512251 3.229134
v -1.995000 -0.512251 3.170866
v -1.995000 -0.456115 3.434966
vn 0.2544 0.0549 -0.9655
vn 0.2545 0.4429 0.8597
vn 0.2545 -0.4429 -0.8597
vn 0.2544 -0.0549 0.9655
vn -0.2545 0.0549 -0.9655
vn -0.2544 0.4429 0.8597
vn -0.2544 -0.4429 -0.8597
vn -0.2545 -0.0549 0.9655
vt 0.625000 0.000000
vt 0.375000 0.250000
vt 0.375000 0.000000
vt 0.625000 0.250000
vt 0.375000 0.500000
vt 0.625000 0.500000
vt 0.375000 0.750000
vt 0.625000 0.750000
vt 0.375000 1.000000
vt 0.125000 0.750000
vt 0.125000 0.500000
vt 0.875000 0.500000
vt 0.625000 1.000000
vt 0.875000 0.750000
s 1
g Cube.003_Mat_Ruina_Ouro_30.003
usemtl Mat_Ruina_Ouro_30.003
f 122/241/122 123/242/123 121/243/121
f 124/244/124 127/245/127 123/242/123
f 128/246/128 125/247/125 127/245/127
f 126/248/126 121/249/121 125/247/125
f 127/245/127 121/250/121 123/251/123
f 124/252/124 126/248/126 128/246/128
f 122/241/122 124/244/124 123/242/123
f 124/244/124 128/246/128 127/245/127
f 128/246/128 126/248/126 125/247/125
f 126/248/126 122/253/122 121/249/121
f 127/245/127 125/247/125 121/250/121
f 124/252/124 122/254/122 126/248/126
o Cube.004
v 1.900000 0.350000 3.750000
v 1.900000 0.350000 4.250000
v 1.900000 -0.350000 3.750000
v 1.900000 -0.350000 4.250000
v -0.300000 0.350000 3.750000
v -0.300000 0.350000 4.250000
v -0.300000 -0.350000 3.750000
v -0.300000 -0.350000 4.250000
vn 0.1818 0.5715 -0.8002
vn 0.1819 0.5715 0.8002
vn 0.1819 -0.5715 -0.8002
vn 0.1818 -0.5715 0.8002
vn -0.1819 0.5715 -0.8002
vn -0.1818 0.5715 0.8002
vn -0.1818 -0.5715 -0.8002
vn -0.1819 -0.5715 0.8002
vt 0.625000 0.000000
vt 0.375000 0.250000
vt 0.375000 0.000000
vt 0.625000 0.250000
vt 0.375000 0.500000
vt 0.625000 0.500000
vt 0.375000 0.750000
vt 0.625000 0.750000
vt 0.375000 1.000000
vt 0.125000 0.750000
vt 0.125000 0.500000
vt 0.875000 0.500000
vt 0.625000 1.000000
vt 0.875000 0.750000
s 1
g Cube.004_Mat_Ruina_Marmore_60.005
usemtl Mat_Ruina_Marmore_60.005
f 130/255/130 131/256/131 129/257/129
f 132/258/132 135/259/135 131/256/131
f 136/260/136 133/261/133 135/259/135
f 134/262/134 129/263/129 133/261/133
f 135/259/135 129/264/129 131/265/131
f 132/266/132 134/262/134 136/260/136
f 130/255/130 132/258/132 131/256/131
f 132/258/132 136/260/136 135/259/135
f 136/260/136 134/262/134 133/261/133
f 134/262/134 130/267/130 129/263/129
f 135/259/135 133/261/133 129/264/129
f 132/266/132 130/268/130 134/262/134
o Cylinder.003
v 0.000000 0.050000 0.600000
v 0.000000 0.050000 1.500000
v -0.388909 0.211091 0.600000
v -0.388909 0.211091 1.500000
v -0.550000 0.600000 0.600000
v -0.550000 0.600000 1.500000
v -0.388909 0.988909 0.600000
v -0.388909 0.988909 1.500000
v 0.000000 1.150000 0.600000
v 0.000000 1.150000 1.500000
v 0.388909 0.988909 0.600000
v 0.388909 0.988909 1.500000
v 0.550000 0.600000 0.600000
v 0.550000 0.600000 1.500000
v 0.388909 0.211091 0.600000
v 0.388909 0.211091 1.500000
vn -0.0000 -0.7764 -0.6303
vn -0.0000 -0.7764 0.6303
vn -0.5490 -0.5490 -0.6303
vn -0.5490 -0.5490 0.6303
vn -0.7764 -0.0000 -0.6303
vn -0.7764 -0.0000 0.6303
vn -0.5490 0.5490 -0.6303
vn -0.5490 0.5490 0.6303
vn -0.0000 0.7764 -0.6303
vn -0.0000 0.7764 0.6303
vn 0.5490 0.5490 -0.6303
vn 0.5490 0.5490 0.6303
vn 0.7764 -0.0000 -0.6303
vn 0.7764 -0.0000 0.6303
vn 0.5490 -0.5490 -0.6303
vn 0.5490 -0.5490 0.6303
vt 1.000000 1.000000
vt 0.875000 0.500000
vt 1.000000 0.500000
vt 0.875000 1.000000
vt 0.750000 0.500000
vt 0.750000 1.000000
vt 0.625000 0.500000
vt 0.625000 1.000000
vt 0.500000 0.500000
vt 0.500000 1.000000
vt 0.375000 0.500000
vt 0.375000 1.000000
vt 0.250000 0.500000
vt 0.010000 0.250000
vt 0.250000 0.010000
vt 0.490000 0.250000
vt 0.250000 1.000000
vt 0.125000 0.500000
vt 0.125000 1.000000
vt 0.000000 0.500000
vt 0.919706 0.080294
vt 0.580294 0.080294
vt 0.580294 0.419706
vt 0.419706 0.419706
vt 0.250000 0.490000
vt 0.080294 0.419706
vt 0.080294 0.080294
vt 0.419706 0.080294
vt 0.000000 1.000000
vt 0.750000 0.490000
vt 0.919706 0.419706
vt 0.990000 0.250000
vt 0.750000 0.010000
vt 0.510000 0.250000
s 1
g Cylinder.003_Mat_Ruina_Ouro_30.004
usemtl Mat_Ruina_Ouro_30.004
f 138/269/138 139/270/139 137/271/137
f 140/272/140 141/273/141 139/270/139
f 142/274/142 143/275/143 141/273/141
f 144/276/144 145/277/145 143/275/143
f 146/278/146 147/279/147 145/277/145
f 148/280/148 149/281/149 147/279/147
f 150/282/150 146/283/146 142/284/142
f 150/285/150 151/286/151 149/281/149
f 152/287/152 137/288/137 151/286/151
f 143/289/143 147/290/147 151/291/151
f 138/269/138 140/272/140 139/270/139
f 140/272/140 142/274/142 141/273/141
f 142/274/142 144/276/144 143/275/143
f 144/276/144 146/278/146 145/277/145
f 146/278/146 148/280/148 147/279/147
f 148/280/148 150/285/150 149/281/149
f 142/284/142 140/292/140 138/293/138
f 138/293/138 152/294/152 150/282/150
f 150/282/150 148/295/148 146/283/146
f 146/283/146 144/296/144 142/284/142
f 142/284/142 138/293/138 150/282/150
f 150/285/150 152/287/152 151/286/151
f 152/287/152 138/297/138 137/288/137
f 151/291/151 137/298/137 139/299/139
f 139/299/139 141/300/141 143/289/143
f 143/289/143 145/301/145 147/290/147
f 147/290/147 149/302/149 151/291/151
f 151/291/151 139/299/139 143/289/143
o Cone
v 0.000000 0.250000 1.600000
v -0.303109 0.425000 1.600000
v -0.303109 0.775000 1.600000
v 0.000000 0.950000 1.600000
v 0.303109 0.775000 1.600000
v 0.303109 0.425000 1.600000
v 0.000000 0.600000 2.400000
vn -0.0000 -0.8919 -0.4522
vn -0.7724 -0.4460 -0.4522
vn -0.7724 0.4460 -0.4522
vn -0.0000 0.8919 -0.4522
vn 0.7724 0.4460 -0.4522
vn 0.7724 -0.4460 -0.4522
vn -0.0000 -0.0000 1.0000
vt 0.250000 0.490000
vt 0.250000 0.250000
vt 0.457846 0.370000
vt 0.457846 0.130000
vt 0.250000 0.010000
vt 0.042154 0.130000
vt 0.957846 0.370000
vt 0.750000 0.010000
vt 0.542154 0.370000
vt 0.042154 0.370000
vt 0.750000 0.490000
vt 0.957846 0.130000
vt 0.542154 0.130000
s 1
g Cone_Mat_Ruina_Cristal_10.001
usemtl Mat_Ruina_Cristal_10.001
f 153/303/153 159/304/159 154/305/154
f 154/305/154 159/304/159 155/306/155
f 155/306/155 159/304/159 156/307/156
f 156/307/156 159/304/159 157/308/157
f 154/309/154 156/310/156 158/311/158
f 157/308/157 159/304/159 158/312/158
f 158/312/158 159/304/159 153/303/153
f 158/311/158 153/313/153 154/309/154
f 154/309/154 155/314/155 156/310/156
f 156/310/156 157/315/157 158/311/158
o Cone.001
v 0.000000 0.950000 1.800000
v -0.303109 0.775000 1.800000
v -0.303109 0.425000 1.800000
v 0.000000 0.250000 1.800000
v 0.303109 0.425000 1.800000
v 0.303109 0.775000 1.800000
v 0.000000 0.600000 1.000000
vn -0.0000 0.8919 0.4522
vn -0.7724 0.4460 0.4522
vn -0.7724 -0.4460 0.4522
vn -0.0000 -0.8919 0.4522
vn 0.7724 -0.4460 0.4522
vn 0.7724 0.4460 0.4522
vn -0.0000 -0.0000 -1.0000
vt 0.250000 0.490000
vt 0.250000 0.250000
vt 0.457846 0.370000
vt 0.457846 0.130000
vt 0.250000 0.010000
vt 0.042154 0.130000
vt 0.957846 0.370000
vt 0.750000 0.010000
vt 0.542154 0.370000
vt 0.042154 0.370000
vt 0.750000 0.490000
vt 0.957846 0.130000
vt 0.542154 0.130000
s 1
g Cone.001_Mat_Ruina_Cristal_10.002
usemtl Mat_Ruina_Cristal_10.002
f 160/316/160 166/317/166 161/318/161
f 161/318/161 166/317/166 162/319/162
f 162/319/162 166/317/166 163/320/163
f 163/320/163 166/317/166 164/321/164
f 161/322/161 163/323/163 165/324/165
f 164/321/164 166/317/166 165/325/165
f 165/325/165 166/317/166 160/316/160
f 165/324/165 160/326/160 161/322/161
f 161/322/161 162/327/162 163/323/163
f 163/323/163 164/328/164 165/324/165
