# Blender 4.5.5 LTS
# www.blender.org
mtllib 14_geiser_hidrotermal_3d.mtl
o Vent_Basalt_Base
v 0.000000 0.000000 -0.160000
v -0.651247 0.325950 0.016890
v 0.248749 0.527403 0.016890
v 0.804984 0.000000 0.016891
v 0.248749 -0.527403 0.016890
v -0.651247 -0.325950 0.016890
v -0.248749 0.527403 0.303110
v 0.651247 0.325950 0.303110
v 0.651247 -0.325950 0.303110
v -0.248749 -0.527403 0.303110
v -0.804984 0.000000 0.303109
v 0.000000 0.000000 0.480000
v 0.146210 0.309997 -0.112209
v -0.382790 0.191587 -0.112209
v -0.236582 0.501587 -0.008236
v -0.765583 0.000000 -0.008235
v -0.382790 -0.191587 -0.112209
v 0.473157 0.000000 -0.112209
v 0.619370 0.309998 -0.008236
v 0.146210 -0.309997 -0.112209
v 0.619370 -0.309998 -0.008236
v -0.236582 -0.501587 -0.008236
v -0.855952 0.191588 0.160000
v -0.855952 -0.191588 0.160000
v 0.000000 0.620000 0.160000
v -0.529007 0.501590 0.160000
v 0.855952 0.191588 0.160000
v 0.529007 0.501590 0.160000
v 0.529007 -0.501590 0.160000
v 0.855952 -0.191588 0.160000
v -0.529007 -0.501590 0.160000
v 0.000000 -0.620000 0.160000
v -0.619370 0.309998 0.328236
v 0.236582 0.501587 0.328236
v 0.765583 0.000000 0.328236
v 0.236582 -0.501587 0.328236
v -0.619370 -0.309998 0.328236
v -0.146210 0.309997 0.432209
v -0.473157 0.000000 0.432209
v 0.382790 0.191587 0.432209
v 0.382790 -0.191587 0.432209
v -0.146210 -0.309997 0.432209
vn -0.0380 0.1697 -0.9848
vn -0.3456 0.1920 -0.9185
vn 0.0999 0.1054 -0.9894
vn 0.0999 -0.1054 -0.9894
vn -0.0380 -0.1697 -0.9848
vn -0.6683 0.2873 -0.6862
vn -0.0150 0.8274 -0.5614
vn 0.6516 0.3350 -0.6806
vn 0.3728 -0.7053 -0.6029
vn -0.3433 -0.7252 -0.5968
vn -0.6585 0.6945 -0.2899
vn 0.2118 0.9463 -0.2441
vn 0.9420 -0.0000 -0.3355
vn 0.2118 -0.9463 -0.2441
vn -0.6585 -0.6945 -0.2899
vn -0.1936 0.4318 0.8809
vn 0.2246 0.4034 0.8870
vn 0.3456 -0.1920 0.9185
vn -0.0179 -0.5043 0.8634
vn -0.3590 -0.1402 0.9228
vn -0.0999 -0.1054 0.9894
vn -0.2093 -0.2208 0.9526
vn -0.1936 -0.4318 0.8809
vn 0.0380 -0.1697 0.9848
vn 0.0784 -0.3500 0.9335
vn 0.2246 -0.4034 0.8870
vn 0.1239 -0.0000 0.9923
vn 0.2621 -0.0000 0.9650
vn 0.3456 0.1920 0.9185
vn 0.0380 0.1697 0.9848
vn 0.0784 0.3500 0.9335
vn -0.0179 0.5043 0.8634
vn -0.0999 0.1054 0.9894
vn -0.2093 0.2208 0.9526
vn -0.3590 0.1402 0.9228
vn -0.6516 -0.3350 0.6806
vn -0.6258 -0.6600 0.4155
vn -0.3728 -0.7053 0.6029
vn 0.0150 -0.8274 0.5614
vn 0.2042 -0.9123 0.3550
vn 0.3433 -0.7252 0.5968
vn 0.6683 -0.2873 0.6862
vn 0.8810 -0.0000 0.4732
vn 0.6683 0.2873 0.6862
vn 0.3433 0.7252 0.5968
vn 0.2042 0.9123 0.3550
vn 0.0150 0.8274 0.5614
vn -0.3728 0.7053 0.6029
vn -0.6258 0.6600 0.4155
vn -0.6516 0.3350 0.6806
vn -0.2118 -0.9463 0.2441
vn -0.2042 -0.9123 -0.3550
vn -0.0150 -0.8274 -0.5614
vn 0.6585 -0.6945 0.2899
vn 0.6258 -0.6600 -0.4155
vn 0.6516 -0.3350 -0.6806
vn 0.6585 0.6945 0.2899
vn 0.6258 0.6600 -0.4155
vn 0.3728 0.7053 -0.6029
vn -0.2118 0.9463 0.2441
vn -0.2042 0.9123 -0.3550
vn -0.3433 0.7252 -0.5968
vn -0.9420 -0.0000 0.3355
vn -0.8810 -0.0000 -0.4732
vn -0.6683 -0.2873 -0.6862
vn -0.2246 -0.4034 -0.8870
vn -0.0784 -0.3500 -0.9335
vn 0.0179 -0.5043 -0.8634
vn 0.1936 -0.4318 -0.8809
vn 0.2093 -0.2208 -0.9526
vn 0.3590 -0.1402 -0.9228
vn 0.3590 0.1402 -0.9228
vn 0.2093 0.2208 -0.9526
vn 0.1936 0.4318 -0.8809
vn -0.3456 -0.1920 -0.9185
vn -0.2621 -0.0000 -0.9650
vn -0.1239 -0.0000 -0.9923
vn 0.0179 0.5043 -0.8634
vn -0.0784 0.3500 -0.9335
vn -0.2246 0.4034 -0.8870
vt 0.181819 0.000000
vt 0.227273 0.078731
vt 0.136365 0.078731
vt 0.272728 0.157461
vt 0.318182 0.078731
vt 0.363637 0.157461
vt 0.909091 0.000000
vt 0.954545 0.078731
vt 0.863636 0.078731
vt 0.727273 0.000000
vt 0.772727 0.078731
vt 0.681818 0.078731
vt 0.545455 0.000000
vt 0.590909 0.078731
vt 0.500000 0.078731
vt 0.318182 0.236191
vt 0.090910 0.157461
vt 0.181819 0.157461
vt 0.136365 0.236191
vt 0.818182 0.157461
vt 0.909091 0.157461
vt 0.863636 0.236191
vt 0.636364 0.157461
vt 0.727273 0.157461
vt 0.681818 0.236191
vt 0.454546 0.157461
vt 0.545455 0.157461
vt 0.500000 0.236191
vt 0.227273 0.236191
vt 0.045455 0.236191
vt 0.772727 0.236191
vt 0.590909 0.236191
vt 0.409092 0.236191
vt 0.181819 0.314921
vt 0.272728 0.314921
vt 0.227273 0.393651
vt 0.000000 0.314921
vt 0.090910 0.314921
vt 0.045455 0.393651
vt 0.727273 0.314921
vt 0.818182 0.314921
vt 0.772727 0.393651
vt 0.545455 0.314921
vt 0.636364 0.314921
vt 0.590909 0.393651
vt 0.363637 0.314921
vt 0.454546 0.314921
vt 0.409092 0.393651
vt 0.500000 0.393651
vt 0.454546 0.472382
vt 0.681818 0.393651
vt 0.636364 0.472382
vt 0.863636 0.393651
vt 0.818182 0.472382
vt 0.909091 0.314921
vt 0.136365 0.393651
vt 0.090910 0.472382
vt 0.318182 0.393651
vt 0.272728 0.472382
vt 0.954545 0.236191
vt 1.000000 0.157461
vt 0.409092 0.078731
vt 0.363637 0.000000
s 0
g Vent_Basalt_Base_Geyser_Basalt.001
usemtl Geyser_Basalt.001
f 1/1/1 14/2/1 13/3/1
f 2/4/2 14/5/2 16/6/2
f 1/7/3 13/8/3 18/9/3
f 1/10/4 18/11/4 20/12/4
f 1/13/5 20/14/5 17/15/5
f 2/4/6 16/6/6 23/16/6
f 3/17/7 15/18/7 25/19/7
f 4/20/8 19/21/8 27/22/8
f 5/23/9 21/24/9 29/25/9
f 6/26/10 22/27/10 31/28/10
f 2/4/11 23/16/11 26/29/11
f 3/17/12 25/19/12 28/30/12
f 4/20/13 27/22/13 30/31/13
f 5/23/14 29/25/14 32/32/14
f 6/26/15 31/28/15 24/33/15
f 7/34/16 33/35/16 38/36/16
f 8/37/17 34/38/17 40/39/17
f 9/40/18 35/41/18 41/42/18
f 10/43/19 36/44/19 42/45/19
f 11/46/20 37/47/20 39/48/20
f 39/48/21 42/49/21 12/50/21
f 39/48/22 37/47/22 42/49/22
f 37/47/23 10/43/23 42/49/23
f 42/45/24 41/51/24 12/52/24
f 42/45/25 36/44/25 41/51/25
f 36/44/26 9/40/26 41/51/26
f 41/42/27 40/53/27 12/54/27
f 41/42/28 35/41/28 40/53/28
f 35/41/29 8/55/29 40/53/29
f 40/39/30 38/56/30 12/57/30
f 40/39/31 34/38/31 38/56/31
f 34/38/32 7/34/32 38/56/32
f 38/36/33 39/58/33 12/59/33
f 38/36/34 33/35/34 39/58/34
f 33/35/35 11/46/35 39/58/35
f 24/33/36 37/47/36 11/46/36
f 24/33/37 31/28/37 37/47/37
f 31/28/38 10/43/38 37/47/38
f 32/32/39 36/44/39 10/43/39
f 32/32/40 29/25/40 36/44/40
f 29/25/41 9/40/41 36/44/41
f 30/31/42 35/41/42 9/40/42
f 30/31/43 27/22/43 35/41/43
f 27/22/44 8/55/44 35/41/44
f 28/30/45 34/38/45 8/37/45
f 28/30/46 25/19/46 34/38/46
f 25/19/47 7/34/47 34/38/47
f 26/29/48 33/35/48 7/34/48
f 26/29/49 23/16/49 33/35/49
f 23/16/50 11/46/50 33/35/50
f 31/28/51 32/32/51 10/43/51
f 31/28/52 22/27/52 32/32/52
f 22/27/53 5/23/53 32/32/53
f 29/25/54 30/31/54 9/40/54
f 29/25/55 21/24/55 30/31/55
f 21/24/56 4/20/56 30/31/56
f 27/22/57 28/60/57 8/55/57
f 27/22/58 19/21/58 28/60/58
f 19/21/59 3/61/59 28/60/59
f 25/19/60 26/29/60 7/34/60
f 25/19/61 15/18/61 26/29/61
f 15/18/62 2/4/62 26/29/62
f 23/16/63 24/33/63 11/46/63
f 23/16/64 16/6/64 24/33/64
f 16/6/65 6/26/65 24/33/65
f 17/15/66 22/27/66 6/26/66
f 17/15/67 20/14/67 22/27/67
f 20/14/68 5/23/68 22/27/68
f 20/12/69 21/24/69 5/23/69
f 20/12/70 18/11/70 21/24/70
f 18/11/71 4/20/71 21/24/71
f 18/9/72 19/21/72 4/20/72
f 18/9/73 13/8/73 19/21/73
f 13/8/74 3/61/74 19/21/74
f 16/6/75 17/62/75 6/26/75
f 16/6/76 14/5/76 17/62/76
f 14/5/77 1/63/77 17/62/77
f 13/3/78 15/18/78 3/17/78
f 13/3/79 14/2/79 15/18/79
f 14/2/80 2/4/80 15/18/80
o Bioluminescent_Vent_Rim
v -0.515000 0.000000 0.400000
v -0.467500 0.000000 0.482272
v -0.372500 0.000000 0.482272
v -0.325000 0.000000 0.400000
v -0.372500 0.000000 0.317728
v -0.467500 0.000000 0.317728
v -0.489794 -0.159144 0.400000
v -0.444619 -0.144465 0.482272
v -0.354269 -0.115109 0.482272
v -0.309093 -0.100430 0.400000
v -0.354269 -0.115109 0.317728
v -0.444619 -0.144465 0.317728
v -0.416644 -0.302709 0.400000
v -0.378215 -0.274790 0.482272
v -0.301359 -0.218950 0.482272
v -0.262931 -0.191030 0.400000
v -0.301359 -0.218950 0.317728
v -0.378215 -0.274790 0.317728
v -0.302709 -0.416644 0.400000
v -0.274790 -0.378215 0.482272
v -0.218950 -0.301359 0.482272
v -0.191030 -0.262931 0.400000
v -0.218950 -0.301359 0.317728
v -0.274790 -0.378215 0.317728
v -0.159144 -0.489794 0.400000
v -0.144466 -0.444619 0.482272
v -0.115109 -0.354269 0.482272
v -0.100431 -0.309093 0.400000
v -0.115109 -0.354269 0.317728
v -0.144466 -0.444619 0.317728
v -0.000000 -0.515000 0.400000
v -0.000000 -0.467500 0.482272
v -0.000000 -0.372500 0.482272
v -0.000000 -0.325000 0.400000
v -0.000000 -0.372500 0.317728
v -0.000000 -0.467500 0.317728
v 0.159144 -0.489794 0.400000
v 0.144465 -0.444619 0.482272
v 0.115109 -0.354269 0.482272
v 0.100431 -0.309093 0.400000
v 0.115109 -0.354269 0.317728
v 0.144465 -0.444619 0.317728
v 0.302709 -0.416644 0.400000
v 0.274790 -0.378215 0.482272
v 0.218950 -0.301359 0.482272
v 0.191030 -0.262930 0.400000
v 0.218950 -0.301359 0.317728
v 0.274790 -0.378215 0.317728
v 0.416644 -0.302709 0.400000
v 0.378216 -0.274789 0.482272
v 0.301359 -0.218950 0.482272
v 0.262931 -0.191030 0.400000
v 0.301359 -0.218950 0.317728
v 0.378216 -0.274789 0.317728
v 0.489794 -0.159144 0.400000
v 0.444619 -0.144465 0.482272
v 0.354269 -0.115109 0.482272
v 0.309093 -0.100431 0.400000
v 0.354269 -0.115109 0.317728
v 0.444619 -0.144465 0.317728
v 0.515000 -0.000000 0.400000
v 0.467500 -0.000000 0.482272
v 0.372500 -0.000000 0.482272
v 0.325000 -0.000000 0.400000
v 0.372500 -0.000000 0.317728
v 0.467500 -0.000000 0.317728
v 0.489794 0.159144 0.400000
v 0.444619 0.144465 0.482272
v 0.354269 0.115109 0.482272
v 0.309093 0.100430 0.400000
v 0.354269 0.115109 0.317728
v 0.444619 0.144465 0.317728
v 0.416644 0.302709 0.400000
v 0.378216 0.274789 0.482272
v 0.301359 0.218950 0.482272
v 0.262931 0.191030 0.400000
v 0.301359 0.218950 0.317728
v 0.378216 0.274789 0.317728
v 0.302709 0.416644 0.400000
v 0.274790 0.378215 0.482272
v 0.218950 0.301359 0.482272
v 0.191030 0.262930 0.400000
v 0.218950 0.301359 0.317728
v 0.274790 0.378215 0.317728
v 0.159144 0.489794 0.400000
v 0.144465 0.444619 0.482272
v 0.115109 0.354269 0.482272
v 0.100431 0.309093 0.400000
v 0.115109 0.354269 0.317728
v 0.144465 0.444619 0.317728
v -0.000000 0.515000 0.400000
v -0.000000 0.467500 0.482272
v -0.000000 0.372500 0.482272
v -0.000000 0.325000 0.400000
v -0.000000 0.372500 0.317728
v -0.000000 0.467500 0.317728
v -0.159144 0.489794 0.400000
v -0.144466 0.444619 0.482272
v -0.115109 0.354269 0.482272
v -0.100431 0.309093 0.400000
v -0.115109 0.354269 0.317728
v -0.144466 0.444619 0.317728
v -0.302709 0.416644 0.400000
v -0.274789 0.378216 0.482272
v -0.218950 0.301359 0.482272
v -0.191030 0.262931 0.400000
v -0.218950 0.301359 0.317728
v -0.274789 0.378216 0.317728
v -0.416644 0.302710 0.400000
v -0.378215 0.274790 0.482272
v -0.301359 0.218950 0.482272
v -0.262930 0.191030 0.400000
v -0.301359 0.218950 0.317728
v -0.378215 0.274790 0.317728
v -0.489794 0.159144 0.400000
v -0.444619 0.144466 0.482272
v -0.354269 0.115109 0.482272
v -0.309093 0.100431 0.400000
v -0.354268 0.115109 0.317728
v -0.444619 0.144466 0.317728
vn -0.8580 -0.1359 0.4954
vn -0.0000 -0.0000 1.0000
vn 0.8580 0.1359 0.4954
vn 0.8580 0.1359 -0.4954
vn -0.0000 -0.0000 -1.0000
vn -0.8580 -0.1359 -0.4954
vn -0.7740 -0.3944 0.4954
vn 0.7740 0.3944 0.4954
vn 0.7740 0.3944 -0.4954
vn -0.7740 -0.3944 -0.4954
vn -0.6143 -0.6143 0.4954
vn 0.6143 0.6143 0.4954
vn 0.6143 0.6143 -0.4954
vn -0.6143 -0.6143 -0.4954
vn -0.3944 -0.7740 0.4954
vn 0.3944 0.7740 0.4954
vn 0.3944 0.7740 -0.4954
vn -0.3944 -0.7740 -0.4954
vn -0.1359 -0.8580 0.4954
vn 0.1359 0.8580 0.4954
vn 0.1359 0.8580 -0.4954
vn -0.1359 -0.8580 -0.4954
vn 0.1359 -0.8580 0.4954
vn -0.1359 0.8580 0.4954
vn -0.1359 0.8580 -0.4954
vn 0.1359 -0.8580 -0.4954
vn 0.3944 -0.7740 0.4954
vn -0.3944 0.7740 0.4954
vn -0.3944 0.7740 -0.4954
vn 0.3944 -0.7740 -0.4954
vn 0.6143 -0.6143 0.4954
vn -0.6143 0.6143 0.4954
vn -0.6143 0.6143 -0.4954
vn 0.6143 -0.6143 -0.4954
vn 0.7740 -0.3944 0.4954
vn -0.7740 0.3944 0.4954
vn -0.7740 0.3944 -0.4954
vn 0.7740 -0.3944 -0.4954
vn 0.8580 -0.1359 0.4954
vn -0.8580 0.1359 0.4954
vn -0.8580 0.1359 -0.4954
vn 0.8580 -0.1359 -0.4954
vt 0.600000 0.500000
vt 0.550000 0.666667
vt 0.550000 0.500000
vt 0.600000 0.666667
vt 0.550000 0.833333
vt 0.600000 0.833333
vt 0.550000 1.000000
vt 0.600000 -0.000000
vt 0.550000 0.166667
vt 0.550000 -0.000000
vt 0.600000 0.166667
vt 0.550000 0.333333
vt 0.600000 0.333333
vt 0.650000 0.666667
vt 0.650000 0.833333
vt 0.600000 1.000000
vt 0.650000 0.166667
vt 0.650000 0.333333
vt 0.700000 0.500000
vt 0.650000 0.500000
vt 0.700000 0.666667
vt 0.700000 0.833333
vt 0.650000 1.000000
vt 0.650000 -0.000000
vt 0.700000 0.166667
vt 0.700000 0.333333
vt 0.750000 0.500000
vt 0.750000 0.666667
vt 0.750000 0.833333
vt 0.700000 1.000000
vt 0.750000 -0.000000
vt 0.700000 -0.000000
vt 0.750000 0.166667
vt 0.750000 0.333333
vt 0.800000 0.500000
vt 0.800000 0.666667
vt 0.800000 0.833333
vt 0.750000 1.000000
vt 0.800000 -0.000000
vt 0.800000 0.166667
vt 0.800000 0.333333
vt 0.850000 0.500000
vt 0.850000 0.666667
vt 0.850000 0.833333
vt 0.800000 1.000000
vt 0.850000 -0.000000
vt 0.850000 0.166667
vt 0.850000 0.333333
vt 0.900000 0.500000
vt 0.900000 0.666667
vt 0.900000 0.833333
vt 0.850000 1.000000
vt 0.900000 -0.000000
vt 0.900000 0.333333
vt 0.950000 0.666667
vt 0.950000 0.833333
vt 0.900000 1.000000
vt 0.950000 0.166667
vt 0.900000 0.166667
vt 0.950000 0.333333
vt 1.000000 0.500000
vt 0.950000 0.500000
vt 1.000000 0.666667
vt 1.000000 0.833333
vt 0.950000 1.000000
vt 1.000000 -0.000000
vt 0.950000 -0.000000
vt 1.000000 0.166667
vt 1.000000 0.333333
vt 0.050000 0.500000
vt 0.000000 0.666667
vt 0.000000 0.500000
vt 0.050000 0.666667
vt 0.000000 0.833333
vt 0.050000 0.833333
vt 0.000000 1.000000
vt 0.050000 -0.000000
vt 0.000000 0.166667
vt 0.000000 -0.000000
vt 0.050000 0.333333
vt 0.000000 0.333333
vt 0.100000 0.500000
vt 0.100000 0.833333
vt 0.050000 1.000000
vt 0.100000 -0.000000
vt 0.050000 0.166667
vt 0.100000 0.166667
vt 0.100000 0.333333
vt 0.150000 0.666667
vt 0.100000 0.666667
vt 0.150000 0.833333
vt 0.100000 1.000000
vt 0.150000 -0.000000
vt 0.150000 0.166667
vt 0.150000 0.333333
vt 0.200000 0.500000
vt 0.150000 0.500000
vt 0.200000 0.833333
vt 0.150000 1.000000
vt 0.200000 -0.000000
vt 0.200000 0.166667
vt 0.250000 0.500000
vt 0.200000 0.666667
vt 0.250000 0.666667
vt 0.250000 0.833333
vt 0.200000 1.000000
vt 0.250000 -0.000000
vt 0.250000 0.166667
vt 0.200000 0.333333
vt 0.250000 0.333333
vt 0.300000 0.500000
vt 0.300000 0.666667
vt 0.300000 0.833333
vt 0.250000 1.000000
vt 0.300000 -0.000000
vt 0.300000 0.333333
vt 0.350000 0.666667
vt 0.350000 1.000000
vt 0.300000 1.000000
vt 0.350000 -0.000000
vt 0.300000 0.166667
vt 0.350000 0.166667
vt 0.350000 0.333333
vt 0.400000 0.500000
vt 0.350000 0.500000
vt 0.400000 0.833333
vt 0.350000 0.833333
vt 0.400000 -0.000000
vt 0.400000 0.333333
vt 0.450000 0.500000
vt 0.400000 0.666667
vt 0.450000 0.833333
vt 0.400000 1.000000
vt 0.450000 -0.000000
vt 0.400000 0.166667
vt 0.450000 0.166667
vt 0.450000 0.333333
vt 0.500000 0.500000
vt 0.450000 0.666667
vt 0.500000 0.666667
vt 0.500000 0.833333
vt 0.450000 1.000000
vt 0.500000 0.166667
vt 0.500000 0.333333
vt 0.500000 1.000000
vt 0.500000 -0.000000
vt 1.000000 1.000000
s 0
g Bioluminescent_Vent_Rim_Geyser_Cyan_Rim.001
usemtl Geyser_Cyan_Rim.001
f 49/64/81 44/65/81 43/66/81
f 50/67/82 45/68/82 44/65/82
f 51/69/83 46/70/83 45/68/83
f 52/71/84 47/72/84 46/73/84
f 53/74/85 48/75/85 47/72/85
f 54/76/86 43/66/86 48/75/86
f 49/64/87 56/77/87 50/67/87
f 50/67/82 57/78/82 51/69/82
f 57/78/88 52/79/88 51/69/88
f 52/71/89 59/80/89 53/74/89
f 59/80/85 54/76/85 53/74/85
f 60/81/90 49/64/90 54/76/90
f 61/82/91 56/77/91 55/83/91
f 62/84/82 57/78/82 56/77/82
f 63/85/92 58/86/92 57/78/92
f 58/87/93 65/88/93 59/80/93
f 59/80/85 66/89/85 60/81/85
f 66/89/94 55/83/94 60/81/94
f 67/90/95 62/84/95 61/82/95
f 68/91/82 63/85/82 62/84/82
f 69/92/96 64/93/96 63/85/96
f 70/94/97 65/88/97 64/95/97
f 71/96/85 66/89/85 65/88/85
f 72/97/98 61/82/98 66/89/98
f 73/98/99 68/91/99 67/90/99
f 74/99/82 69/92/82 68/91/82
f 75/100/100 70/101/100 69/92/100
f 76/102/101 71/96/101 70/94/101
f 77/103/85 72/97/85 71/96/85
f 78/104/102 67/90/102 72/97/102
f 79/105/103 74/99/103 73/98/103
f 80/106/82 75/100/82 74/99/82
f 81/107/104 76/108/104 75/100/104
f 82/109/105 77/103/105 76/102/105
f 83/110/85 78/104/85 77/103/85
f 84/111/106 73/98/106 78/104/106
f 85/112/107 80/106/107 79/105/107
f 86/113/82 81/107/82 80/106/82
f 87/114/108 82/115/108 81/107/108
f 88/116/109 83/110/109 82/109/109
f 83/110/85 90/117/85 84/111/85
f 90/117/110 79/105/110 84/111/110
f 85/112/111 92/118/111 86/113/111
f 92/118/82 87/114/82 86/113/82
f 93/119/112 88/120/112 87/114/112
f 88/116/113 95/121/113 89/122/113
f 95/121/85 90/117/85 89/122/85
f 96/123/114 85/112/114 90/117/114
f 97/124/115 92/118/115 91/125/115
f 98/126/82 93/119/82 92/118/82
f 99/127/116 94/128/116 93/119/116
f 100/129/117 95/121/117 94/130/117
f 101/131/85 96/123/85 95/121/85
f 102/132/118 91/125/118 96/123/118
f 103/133/119 98/134/119 97/135/119
f 104/136/82 99/137/82 98/134/82
f 105/138/120 100/139/120 99/137/120
f 106/140/121 101/141/121 100/142/121
f 101/141/85 108/143/85 102/144/85
f 102/144/122 103/133/122 97/135/122
f 109/145/83 104/136/83 103/133/83
f 104/136/82 111/146/82 105/138/82
f 111/146/81 106/147/81 105/138/81
f 112/148/86 107/149/86 106/140/86
f 113/150/85 108/143/85 107/149/85
f 114/151/84 103/133/84 108/143/84
f 109/145/88 116/152/88 110/153/88
f 116/152/82 111/146/82 110/153/82
f 117/154/87 112/155/87 111/146/87
f 118/156/90 113/150/90 112/148/90
f 119/157/85 114/151/85 113/150/85
f 120/158/89 109/145/89 114/151/89
f 121/159/92 116/152/92 115/160/92
f 116/152/82 123/161/82 117/154/82
f 123/161/91 118/162/91 117/154/91
f 124/163/94 119/157/94 118/156/94
f 125/164/85 120/158/85 119/157/85
f 120/158/93 121/159/93 115/160/93
f 127/165/96 122/166/96 121/159/96
f 128/167/82 123/161/82 122/166/82
f 129/168/95 124/169/95 123/161/95
f 130/170/98 125/164/98 124/163/98
f 131/171/85 126/172/85 125/164/85
f 132/173/97 121/159/97 126/172/97
f 133/174/100 128/167/100 127/165/100
f 134/175/82 129/168/82 128/167/82
f 135/176/99 130/177/99 129/168/99
f 136/178/102 131/171/102 130/170/102
f 131/171/85 138/179/85 132/173/85
f 138/179/101 127/165/101 132/173/101
f 133/174/104 140/180/104 134/175/104
f 140/180/82 135/176/82 134/175/82
f 135/176/103 142/181/103 136/182/103
f 142/183/106 137/184/106 136/178/106
f 143/185/85 138/179/85 137/184/85
f 144/186/105 133/174/105 138/179/105
f 145/187/108 140/180/108 139/188/108
f 140/180/82 147/189/82 141/190/82
f 147/189/107 142/181/107 141/190/107
f 148/191/110 143/185/110 142/183/110
f 143/185/85 150/192/85 144/186/85
f 144/186/109 145/187/109 139/188/109
f 151/193/112 146/194/112 145/187/112
f 146/194/82 153/195/82 147/189/82
f 153/195/111 148/196/111 147/189/111
f 154/197/114 149/198/114 148/191/114
f 155/199/85 150/192/85 149/198/85
f 156/200/113 145/187/113 150/192/113
f 157/201/116 152/202/116 151/193/116
f 158/203/82 153/195/82 152/202/82
f 159/204/115 154/205/115 153/195/115
f 154/197/118 161/206/118 155/199/118
f 161/206/85 156/200/85 155/199/85
f 162/207/117 151/193/117 156/200/117
f 43/66/120 158/203/120 157/201/120
f 44/65/82 159/204/82 158/203/82
f 45/68/119 160/208/119 159/204/119
f 46/73/122 161/206/122 160/209/122
f 47/72/85 162/207/85 161/206/85
f 162/207/121 43/66/121 157/201/121
f 49/64/81 50/67/81 44/65/81
f 50/67/82 51/69/82 45/68/82
f 51/69/83 52/79/83 46/70/83
f 52/71/84 53/74/84 47/72/84
f 53/74/85 54/76/85 48/75/85
f 54/76/86 49/64/86 43/66/86
f 49/64/87 55/83/87 56/77/87
f 50/67/82 56/77/82 57/78/82
f 57/78/88 58/86/88 52/79/88
f 52/71/89 58/87/89 59/80/89
f 59/80/85 60/81/85 54/76/85
f 60/81/90 55/83/90 49/64/90
f 61/82/91 62/84/91 56/77/91
f 62/84/82 63/85/82 57/78/82
f 63/85/92 64/93/92 58/86/92
f 58/87/93 64/95/93 65/88/93
f 59/80/85 65/88/85 66/89/85
f 66/89/94 61/82/94 55/83/94
f 67/90/95 68/91/95 62/84/95
f 68/91/82 69/92/82 63/85/82
f 69/92/96 70/101/96 64/93/96
f 70/94/97 71/96/97 65/88/97
f 71/96/85 72/97/85 66/89/85
f 72/97/98 67/90/98 61/82/98
f 73/98/99 74/99/99 68/91/99
f 74/99/82 75/100/82 69/92/82
f 75/100/100 76/108/100 70/101/100
f 76/102/101 77/103/101 71/96/101
f 77/103/85 78/104/85 72/97/85
f 78/104/102 73/98/102 67/90/102
f 79/105/103 80/106/103 74/99/103
f 80/106/82 81/107/82 75/100/82
f 81/107/104 82/115/104 76/108/104
f 82/109/105 83/110/105 77/103/105
f 83/110/85 84/111/85 78/104/85
f 84/111/106 79/105/106 73/98/106
f 85/112/107 86/113/107 80/106/107
f 86/113/82 87/114/82 81/107/82
f 87/114/108 88/120/108 82/115/108
f 88/116/109 89/122/109 83/110/109
f 83/110/85 89/122/85 90/117/85
f 90/117/110 85/112/110 79/105/110
f 85/112/111 91/125/111 92/118/111
f 92/118/82 93/119/82 87/114/82
f 93/119/112 94/128/112 88/120/112
f 88/116/113 94/130/113 95/121/113
f 95/121/85 96/123/85 90/117/85
f 96/123/114 91/125/114 85/112/114
f 97/124/115 98/126/115 92/118/115
f 98/126/82 99/127/82 93/119/82
f 99/127/116 100/210/116 94/128/116
f 100/129/117 101/131/117 95/121/117
f 101/131/85 102/132/85 96/123/85
f 102/132/118 97/124/118 91/125/118
f 103/133/119 104/136/119 98/134/119
f 104/136/82 105/138/82 99/137/82
f 105/138/120 106/147/120 100/139/120
f 106/140/121 107/149/121 101/141/121
f 101/141/85 107/149/85 108/143/85
f 102/144/122 108/143/122 103/133/122
f 109/145/83 110/153/83 104/136/83
f 104/136/82 110/153/82 111/146/82
f 111/146/81 112/155/81 106/147/81
f 112/148/86 113/150/86 107/149/86
f 113/150/85 114/151/85 108/143/85
f 114/151/84 109/145/84 103/133/84
f 109/145/88 115/160/88 116/152/88
f 116/152/82 117/154/82 111/146/82
f 117/154/87 118/162/87 112/155/87
f 118/156/90 119/157/90 113/150/90
f 119/157/85 120/158/85 114/151/85
f 120/158/89 115/160/89 109/145/89
f 121/159/92 122/166/92 116/152/92
f 116/152/82 122/166/82 123/161/82
f 123/161/91 124/169/91 118/162/91
f 124/163/94 125/164/94 119/157/94
f 125/164/85 126/172/85 120/158/85
f 120/158/93 126/172/93 121/159/93
f 127/165/96 128/167/96 122/166/96
f 128/167/82 129/168/82 123/161/82
f 129/168/95 130/177/95 124/169/95
f 130/170/98 131/171/98 125/164/98
f 131/171/85 132/173/85 126/172/85
f 132/173/97 127/165/97 121/159/97
f 133/174/100 134/175/100 128/167/100
f 134/175/82 135/176/82 129/168/82
f 135/176/99 136/182/99 130/177/99
f 136/178/102 137/184/102 131/171/102
f 131/171/85 137/184/85 138/179/85
f 138/179/101 133/174/101 127/165/101
f 133/174/104 139/188/104 140/180/104
f 140/180/82 141/190/82 135/176/82
f 135/176/103 141/190/103 142/181/103
f 142/183/106 143/185/106 137/184/106
f 143/185/85 144/186/85 138/179/85
f 144/186/105 139/188/105 133/174/105
f 145/187/108 146/194/108 140/180/108
f 140/180/82 146/194/82 147/189/82
f 147/189/107 148/196/107 142/181/107
f 148/191/110 149/198/110 143/185/110
f 143/185/85 149/198/85 150/192/85
f 144/186/109 150/192/109 145/187/109
f 151/193/112 152/202/112 146/194/112
f 146/194/82 152/202/82 153/195/82
f 153/195/111 154/205/111 148/196/111
f 154/197/114 155/199/114 149/198/114
f 155/199/85 156/200/85 150/192/85
f 156/200/113 151/193/113 145/187/113
f 157/201/116 158/203/116 152/202/116
f 158/203/82 159/204/82 153/195/82
f 159/204/115 160/208/115 154/205/115
f 154/197/118 160/209/118 161/206/118
f 161/206/85 162/207/85 156/200/85
f 162/207/117 157/201/117 151/193/117
f 43/66/120 44/65/120 158/203/120
f 44/65/82 45/68/82 159/204/82
f 45/68/119 46/70/119 160/208/119
f 46/73/122 47/72/122 161/206/122
f 47/72/85 48/75/85 162/207/85
f 162/207/121 48/75/121 43/66/121
o Hydrothermal_Water_Jet
v 0.000000 -0.320000 0.585000
v 0.000000 -0.075000 2.135000
v -0.160000 -0.277128 0.585000
v -0.037500 -0.064952 2.135000
v -0.277128 -0.160000 0.585000
v -0.064952 -0.037500 2.135000
v -0.320000 0.000000 0.585000
v -0.075000 0.000000 2.135000
v -0.277128 0.160000 0.585000
v -0.064952 0.037500 2.135000
v -0.160000 0.277128 0.585000
v -0.037500 0.064952 2.135000
v 0.000000 0.320000 0.585000
v 0.000000 0.075000 2.135000
v 0.160000 0.277128 0.585000
v 0.037500 0.064952 2.135000
v 0.277128 0.160000 0.585000
v 0.064952 0.037500 2.135000
v 0.320000 0.000000 0.585000
v 0.075000 0.000000 2.135000
v 0.277128 -0.160000 0.585000
v 0.064952 -0.037500 2.135000
v 0.160000 -0.277128 0.585000
v 0.037500 -0.064952 2.135000
vn -0.2559 -0.9549 0.1509
vn -0.6990 -0.6990 0.1509
vn -0.9549 -0.2559 0.1509
vn -0.9549 0.2559 0.1509
vn -0.6990 0.6990 0.1509
vn -0.2559 0.9549 0.1509
vn 0.2559 0.9549 0.1509
vn 0.6990 0.6990 0.1509
vn 0.9549 0.2559 0.1509
vn 0.9549 -0.2559 0.1509
vn -0.0000 -0.0000 1.0000
vn 0.6990 -0.6990 0.1509
vn 0.2559 -0.9549 0.1509
vn -0.0000 -0.0000 -1.0000
vt 1.000000 1.000000
vt 0.916667 0.500000
vt 1.000000 0.500000
vt 0.916667 1.000000
vt 0.833333 0.500000
vt 0.833333 1.000000
vt 0.750000 0.500000
vt 0.750000 1.000000
vt 0.666667 0.500000
vt 0.666667 1.000000
vt 0.583333 0.500000
vt 0.583333 1.000000
vt 0.500000 0.500000
vt 0.500000 1.000000
vt 0.416667 0.500000
vt 0.416667 1.000000
vt 0.333333 0.500000
vt 0.333333 1.000000
vt 0.250000 0.500000
vt 0.250000 1.000000
vt 0.166667 0.500000
vt 0.042154 0.370000
vt 0.250000 0.010000
vt 0.457846 0.370000
vt 0.166667 1.000000
vt 0.083333 0.500000
vt 0.083333 1.000000
vt 0.000000 0.500000
vt 0.990000 0.250000
vt 0.630000 0.042154
vt 0.630000 0.457846
vt 0.370000 0.457846
vt 0.250000 0.490000
vt 0.130000 0.457846
vt 0.010000 0.250000
vt 0.042154 0.130000
vt 0.130000 0.042154
vt 0.370000 0.042154
vt 0.457846 0.130000
vt 0.490000 0.250000
vt 0.000000 1.000000
vt 0.750000 0.490000
vt 0.870000 0.457846
vt 0.957846 0.370000
vt 0.957846 0.130000
vt 0.870000 0.042154
vt 0.750000 0.010000
vt 0.542154 0.130000
vt 0.510000 0.250000
vt 0.542154 0.370000
s 0
g Hydrothermal_Water_Jet_Geyser_Water_Jet.001
usemtl Geyser_Water_Jet.001
f 164/211/123 165/212/123 163/213/123
f 166/214/124 167/215/124 165/212/124
f 168/216/125 169/217/125 167/215/125
f 170/218/126 171/219/126 169/217/126
f 172/220/127 173/221/127 171/219/127
f 174/222/128 175/223/128 173/221/128
f 176/224/129 177/225/129 175/223/129
f 178/226/130 179/227/130 177/225/130
f 180/228/131 181/229/131 179/227/131
f 182/230/132 183/231/132 181/229/132
f 184/232/133 176/233/133 168/234/133
f 184/235/134 185/236/134 183/231/134
f 186/237/135 163/238/135 185/236/135
f 169/239/136 177/240/136 185/241/136
f 164/211/123 166/214/123 165/212/123
f 166/214/124 168/216/124 167/215/124
f 168/216/125 170/218/125 169/217/125
f 170/218/126 172/220/126 171/219/126
f 172/220/127 174/222/127 173/221/127
f 174/222/128 176/224/128 175/223/128
f 176/224/129 178/226/129 177/225/129
f 178/226/130 180/228/130 179/227/130
f 180/228/131 182/230/131 181/229/131
f 182/230/132 184/235/132 183/231/132
f 168/234/133 166/242/133 164/243/133
f 164/243/133 186/244/133 184/232/133
f 184/232/133 182/245/133 180/246/133
f 180/246/133 178/247/133 176/233/133
f 176/233/133 174/248/133 172/249/133
f 172/249/133 170/250/133 168/234/133
f 168/234/133 164/243/133 184/232/133
f 184/232/133 180/246/133 176/233/133
f 176/233/133 172/249/133 168/234/133
f 184/235/134 186/237/134 185/236/134
f 186/237/135 164/251/135 163/238/135
f 185/241/136 163/252/136 165/253/136
f 165/253/136 167/254/136 169/239/136
f 169/239/136 171/255/136 173/256/136
f 173/256/136 175/257/136 177/240/136
f 177/240/136 179/258/136 181/259/136
f 181/259/136 183/260/136 185/241/136
f 185/241/136 165/253/136 169/239/136
f 169/239/136 173/256/136 177/240/136
f 177/240/136 181/259/136 185/241/136
o Bubble_1
v 0.220000 -0.020000 0.895000
v 0.144022 0.035201 0.953042
v 0.249020 0.069317 0.953042
v 0.313915 -0.020000 0.953042
v 0.249020 -0.109317 0.953042
v 0.144022 -0.075201 0.953042
v 0.190980 0.069317 1.046958
v 0.295978 0.035201 1.046958
v 0.295978 -0.075201 1.046958
v 0.190980 -0.109317 1.046958
v 0.126085 -0.020000 1.046958
v 0.220000 -0.020000 1.105000
vn -0.1876 0.5774 -0.7947
vn -0.6071 -0.0000 -0.7947
vn 0.4911 0.3568 -0.7947
vn 0.4911 -0.3568 -0.7947
vn -0.1876 -0.5774 -0.7947
vn -0.9822 -0.0000 -0.1876
vn -0.3035 0.9342 -0.1876
vn 0.7946 0.5774 -0.1876
vn 0.7946 -0.5774 -0.1876
vn -0.3035 -0.9342 -0.1876
vn -0.7946 0.5774 0.1876
vn 0.3035 0.9342 0.1876
vn 0.9822 -0.0000 0.1876
vn 0.3035 -0.9342 0.1876
vn -0.7946 -0.5774 0.1876
vn -0.4911 0.3568 0.7947
vn 0.1876 0.5774 0.7947
vn 0.6071 -0.0000 0.7947
vn 0.1876 -0.5774 0.7947
vn -0.4911 -0.3568 0.7947
vt 0.181819 0.000000
vt 0.272728 0.157461
vt 0.090910 0.157461
vt 0.363637 0.000000
vt 0.454546 0.157461
vt 0.909091 0.000000
vt 1.000000 0.157461
vt 0.818182 0.157461
vt 0.727273 0.000000
vt 0.636364 0.157461
vt 0.545455 0.000000
vt 0.363637 0.314921
vt 0.181819 0.314921
vt 0.909091 0.314921
vt 0.727273 0.314921
vt 0.545455 0.314921
vt 0.000000 0.314921
vt 0.272728 0.472382
vt 0.090910 0.472382
vt 0.818182 0.472382
vt 0.636364 0.472382
vt 0.454546 0.472382
s 0
g Bubble_1_Geyser_Bubbles.001
usemtl Geyser_Bubbles.001
f 187/261/137 188/262/137 189/263/137
f 188/262/138 187/264/138 192/265/138
f 187/266/139 189/267/139 190/268/139
f 187/269/140 190/268/140 191/270/140
f 187/271/141 191/270/141 192/265/141
f 188/262/142 192/265/142 197/272/142
f 189/263/143 188/262/143 193/273/143
f 190/268/144 189/267/144 194/274/144
f 191/270/145 190/268/145 195/275/145
f 192/265/146 191/270/146 196/276/146
f 188/262/147 197/272/147 193/273/147
f 189/263/148 193/273/148 194/277/148
f 190/268/149 194/274/149 195/275/149
f 191/270/150 195/275/150 196/276/150
f 192/265/151 196/276/151 197/272/151
f 193/273/152 197/272/152 198/278/152
f 194/277/153 193/273/153 198/279/153
f 195/275/154 194/274/154 198/280/154
f 196/276/155 195/275/155 198/281/155
f 197/272/156 196/276/156 198/282/156
o Bubble_2
v -0.190000 0.040000 1.335000
v -0.251506 0.084686 1.381987
v -0.166507 0.112304 1.381987
v -0.113974 0.040000 1.381987
v -0.166507 -0.032304 1.381987
v -0.251506 -0.004686 1.381987
v -0.213493 0.112304 1.458013
v -0.128494 0.084686 1.458013
v -0.128494 -0.004686 1.458013
v -0.213493 -0.032304 1.458013
v -0.266026 0.040000 1.458013
v -0.190000 0.040000 1.505000
vn -0.1876 0.5774 -0.7947
vn -0.6071 -0.0000 -0.7947
vn 0.4911 0.3568 -0.7947
vn 0.4911 -0.3568 -0.7947
vn -0.1876 -0.5774 -0.7947
vn -0.9822 -0.0000 -0.1876
vn -0.3035 0.9342 -0.1876
vn 0.7946 0.5774 -0.1876
vn 0.7946 -0.5774 -0.1876
vn -0.3035 -0.9342 -0.1876
vn -0.7946 0.5774 0.1876
vn 0.3035 0.9342 0.1876
vn 0.9822 -0.0000 0.1876
vn 0.3035 -0.9342 0.1876
vn -0.7946 -0.5774 0.1876
vn -0.4911 0.3568 0.7947
vn 0.1876 0.5774 0.7947
vn 0.6071 -0.0000 0.7947
vn 0.1876 -0.5774 0.7947
vn -0.4911 -0.3568 0.7947
vt 0.181819 0.000000
vt 0.272728 0.157461
vt 0.090910 0.157461
vt 0.363637 0.000000
vt 0.454546 0.157461
vt 0.909091 0.000000
vt 1.000000 0.157461
vt 0.818182 0.157461
vt 0.727273 0.000000
vt 0.636364 0.157461
vt 0.545455 0.000000
vt 0.363637 0.314921
vt 0.181819 0.314921
vt 0.909091 0.314921
vt 0.727273 0.314921
vt 0.545455 0.314921
vt 0.000000 0.314921
vt 0.272728 0.472382
vt 0.090910 0.472382
vt 0.818182 0.472382
vt 0.636364 0.472382
vt 0.454546 0.472382
s 0
g Bubble_2_Geyser_Bubbles.002
usemtl Geyser_Bubbles.002
f 199/283/157 200/284/157 201/285/157
f 200/284/158 199/286/158 204/287/158
f 199/288/159 201/289/159 202/290/159
f 199/291/160 202/290/160 203/292/160
f 199/293/161 203/292/161 204/287/161
f 200/284/162 204/287/162 209/294/162
f 201/285/163 200/284/163 205/295/163
f 202/290/164 201/289/164 206/296/164
f 203/292/165 202/290/165 207/297/165
f 204/287/166 203/292/166 208/298/166
f 200/284/167 209/294/167 205/295/167
f 201/285/168 205/295/168 206/299/168
f 202/290/169 206/296/169 207/297/169
f 203/292/170 207/297/170 208/298/170
f 204/287/171 208/298/171 209/294/171
f 205/295/172 209/294/172 210/300/172
f 206/299/173 205/295/173 210/301/173
f 207/297/174 206/296/174 210/302/174
f 208/298/175 207/297/175 210/303/175
f 209/294/176 208/298/176 210/304/176
o Bubble_3
v 0.120000 0.020000 1.795000
v 0.065730 0.059429 1.836459
v 0.140729 0.083798 1.836459
v 0.187082 0.020000 1.836459
v 0.140729 -0.043798 1.836459
v 0.065730 -0.019429 1.836459
v 0.099271 0.083798 1.903541
v 0.174270 0.059429 1.903541
v 0.174270 -0.019429 1.903541
v 0.099271 -0.043798 1.903541
v 0.052918 0.020000 1.903541
v 0.120000 0.020000 1.945000
vn -0.1876 0.5774 -0.7947
vn -0.6071 -0.0000 -0.7947
vn 0.4911 0.3568 -0.7947
vn 0.4911 -0.3568 -0.7947
vn -0.1876 -0.5774 -0.7947
vn -0.9822 -0.0000 -0.1876
vn -0.3035 0.9342 -0.1876
vn 0.7946 0.5774 -0.1876
vn 0.7946 -0.5774 -0.1876
vn -0.3035 -0.9342 -0.1876
vn -0.7946 0.5774 0.1876
vn 0.3035 0.9342 0.1876
vn 0.9822 -0.0000 0.1876
vn 0.3035 -0.9342 0.1876
vn -0.7946 -0.5774 0.1876
vn -0.4911 0.3568 0.7947
vn 0.1876 0.5774 0.7947
vn 0.6071 -0.0000 0.7947
vn 0.1876 -0.5774 0.7947
vn -0.4911 -0.3568 0.7947
vt 0.181819 0.000000
vt 0.272728 0.157461
vt 0.090910 0.157461
vt 0.363637 0.000000
vt 0.454546 0.157461
vt 0.909091 0.000000
vt 1.000000 0.157461
vt 0.818182 0.157461
vt 0.727273 0.000000
vt 0.636364 0.157461
vt 0.545455 0.000000
vt 0.363637 0.314921
vt 0.181819 0.314921
vt 0.909091 0.314921
vt 0.727273 0.314921
vt 0.545455 0.314921
vt 0.000000 0.314921
vt 0.272728 0.472382
vt 0.090910 0.472382
vt 0.818182 0.472382
vt 0.636364 0.472382
vt 0.454546 0.472382
s 0
g Bubble_3_Geyser_Bubbles.003
usemtl Geyser_Bubbles.003
f 211/305/177 212/306/177 213/307/177
f 212/306/178 211/308/178 216/309/178
f 211/310/179 213/311/179 214/312/179
f 211/313/180 214/312/180 215/314/180
f 211/315/181 215/314/181 216/309/181
f 212/306/182 216/309/182 221/316/182
f 213/307/183 212/306/183 217/317/183
f 214/312/184 213/311/184 218/318/184
f 215/314/185 214/312/185 219/319/185
f 216/309/186 215/314/186 220/320/186
f 212/306/187 221/316/187 217/317/187
f 213/307/188 217/317/188 218/321/188
f 214/312/189 218/318/189 219/319/189
f 215/314/190 219/319/190 220/320/190
f 216/309/191 220/320/191 221/316/191
f 217/317/192 221/316/192 222/322/192
f 218/321/193 217/317/193 222/323/193
f 219/319/194 218/318/194 222/324/194
f 220/320/195 219/319/195 222/325/195
f 221/316/196 220/320/196 222/326/196
o Bubble_4
v -0.170000 -0.020000 2.140000
v -0.213416 0.011543 2.173167
v -0.153417 0.031038 2.173167
v -0.116335 -0.020000 2.173167
v -0.153417 -0.071038 2.173167
v -0.213416 -0.051543 2.173167
v -0.186583 0.031038 2.226833
v -0.126584 0.011543 2.226833
v -0.126584 -0.051543 2.226833
v -0.186583 -0.071038 2.226833
v -0.223666 -0.020000 2.226833
v -0.170000 -0.020000 2.260000
vn -0.1876 0.5774 -0.7947
vn -0.6071 -0.0000 -0.7947
vn 0.4911 0.3568 -0.7947
vn 0.4911 -0.3568 -0.7947
vn -0.1876 -0.5774 -0.7947
vn -0.9822 -0.0000 -0.1876
vn -0.3035 0.9342 -0.1876
vn 0.7946 0.5774 -0.1876
vn 0.7946 -0.5774 -0.1876
vn -0.3035 -0.9342 -0.1876
vn -0.7946 0.5774 0.1876
vn 0.3035 0.9342 0.1876
vn 0.9822 -0.0000 0.1876
vn 0.3035 -0.9342 0.1876
vn -0.7946 -0.5774 0.1876
vn -0.4911 0.3568 0.7947
vn 0.1876 0.5774 0.7947
vn 0.6071 -0.0000 0.7947
vn 0.1876 -0.5774 0.7947
vn -0.4911 -0.3568 0.7947
vt 0.181819 0.000000
vt 0.272728 0.157461
vt 0.090910 0.157461
vt 0.363637 0.000000
vt 0.454546 0.157461
vt 0.909091 0.000000
vt 1.000000 0.157461
vt 0.818182 0.157461
vt 0.727273 0.000000
vt 0.636364 0.157461
vt 0.545455 0.000000
vt 0.363637 0.314921
vt 0.181819 0.314921
vt 0.909091 0.314921
vt 0.727273 0.314921
vt 0.545455 0.314921
vt 0.000000 0.314921
vt 0.272728 0.472382
vt 0.090910 0.472382
vt 0.818182 0.472382
vt 0.636364 0.472382
vt 0.454546 0.472382
s 0
g Bubble_4_Geyser_Bubbles.004
usemtl Geyser_Bubbles.004
f 223/327/197 224/328/197 225/329/197
f 224/328/198 223/330/198 228/331/198
f 223/332/199 225/333/199 226/334/199
f 223/335/200 226/334/200 227/336/200
f 223/337/201 227/336/201 228/331/201
f 224/328/202 228/331/202 233/338/202
f 225/329/203 224/328/203 229/339/203
f 226/334/204 225/333/204 230/340/204
f 227/336/205 226/334/205 231/341/205
f 228/331/206 227/336/206 232/342/206
f 224/328/207 233/338/207 229/339/207
f 225/329/208 229/339/208 230/343/208
f 226/334/209 230/340/209 231/341/209
f 227/336/210 231/341/210 232/342/210
f 228/331/211 232/342/211 233/338/211
f 229/339/212 233/338/212 234/344/212
f 230/343/213 229/339/213 234/345/213
f 231/341/214 230/340/214 234/346/214
f 232/342/215 231/341/215 234/347/215
f 233/338/216 232/342/216 234/348/216
